<?xml version="1.0" encoding="UTF-8"?>
<svg version="1.1" xmlns="http://www.w3.org/2000/svg" width="204" height="192">
<path d="M0 0 C67.32 0 134.64 0 204 0 C204 63.36 204 126.72 204 192 C136.68 192 69.36 192 0 192 C0 128.64 0 65.28 0 0 Z " fill="#FDFDFD" transform="translate(0,0)"/>
<path d="M0 0 C1.61455078 0.36544922 1.61455078 0.36544922 3.26171875 0.73828125 C22.48011114 5.72608051 39.54327407 20.21864955 49.84619141 36.95605469 C53.62155236 43.64401955 56.3900396 50.79391432 59 58 C59.38285156 59.03640625 59.76570312 60.0728125 60.16015625 61.140625 C65.90770038 79.85355938 61.52136047 100.56309225 54 118 C53.64292969 118.85078125 53.28585938 119.7015625 52.91796875 120.578125 C45.20256779 137.48112358 31.74044906 148.88167957 16 158 C15.2471875 158.51433594 14.494375 159.02867187 13.71875 159.55859375 C9.76671945 161.65385133 5.63611845 162.60903903 1.3125 163.6875 C0.0121582 164.02491211 0.0121582 164.02491211 -1.31445312 164.36914062 C-7.68422302 166 -7.68422302 166 -10 166 C-10 146.53 -10 127.06 -10 107 C-3.4 107 3.2 107 10 107 C10.94364222 100.64339301 10.94364222 100.64339301 11.88452148 94.28637695 C12.00384033 93.48675537 12.12315918 92.68713379 12.24609375 91.86328125 C12.36654053 91.05157471 12.4869873 90.23986816 12.61108398 89.40356445 C13.01215234 86.92489653 13.50757076 84.4621462 14 82 C6.08 82 -1.84 82 -10 82 C-10.0825 78.82375 -10.165 75.6475 -10.25 72.375 C-10.28641602 71.3854834 -10.32283203 70.3959668 -10.36035156 69.37646484 C-10.44533498 62.5956103 -8.91697543 59.19127816 -4.296875 54.13671875 C-0.69543695 52.35437441 2.7985581 52.68569777 6.75 52.8125 C9.4725 52.874375 12.195 52.93625 15 53 C15 45.74 15 38.48 15 31 C11.05185759 30.88418096 7.10812672 30.78498636 3.15917969 30.7253418 C1.16820647 30.68830377 -0.82221653 30.62471772 -2.8125 30.56054688 C-12.63563671 30.43651737 -19.33362435 32.04372499 -26.875 38.4375 C-34.92458974 48.14435822 -35.32802632 56.18114864 -35.625 68.4375 C-35.66367188 69.74138672 -35.70234375 71.04527344 -35.7421875 72.38867188 C-35.83606452 75.5922251 -35.919104 78.7960927 -36 82 C-43.26 82 -50.52 82 -58 82 C-58 90.25 -58 98.5 -58 107 C-50.74 107 -43.48 107 -36 107 C-36 126.47 -36 145.94 -36 166 C-59.67756726 161.69498777 -78.80152094 151.2239474 -92.875 131.25 C-105.48423938 112.56380466 -111.49678692 88.22243851 -107.3515625 65.8515625 C-106.42430137 62.13459266 -105.31255035 58.59880274 -104 55 C-103.76394043 54.35224609 -103.52788086 53.70449219 -103.28466797 53.03710938 C-94.7528937 30.26370804 -78.9216511 13.50291132 -57 3 C-52.71883106 1.26680949 -48.50544665 -0.00008152 -44 -1 C-43.05253906 -1.22171875 -42.10507813 -1.4434375 -41.12890625 -1.671875 C-27.24149832 -4.46066248 -13.64770365 -3.44578185 0 0 Z " fill="#020202" transform="translate(125,14)"/>
</svg>
