<?xml version="1.0" encoding="UTF-8"?>
<svg version="1.1" xmlns="http://www.w3.org/2000/svg" width="512" height="512">
<path d="M0 0 C2.03745503 1.59867726 3.80891197 3.31727538 5.6484375 5.13671875 C9.40182562 8.56601914 13.3030275 10.05097642 18.0234375 11.69921875 C30.12293173 15.92404215 38.81085592 22.06498933 44.8984375 33.63671875 C49.84058926 44.35013326 50.47124592 55.11244008 47.5390625 66.58984375 C46.48916745 71.33247311 46.81134029 75.62414154 48.0859375 80.32421875 C51.09447135 91.48631533 49.06691662 103.08777276 43.73046875 113.20703125 C42.29680689 115.47475377 40.77580221 117.55405256 39.0859375 119.63671875 C38.58449219 120.26191406 38.08304687 120.88710937 37.56640625 121.53125 C31.41330427 128.40296243 22.94097975 131.75367712 14.3359375 134.57421875 C9.61970009 136.20260444 6.64497335 138.40391497 3.0625 141.82421875 C-1.38220639 145.89999694 -6.05497285 149.17194634 -11.9140625 150.63671875 C-11.5840625 163.17671875 -11.2540625 175.71671875 -10.9140625 188.63671875 C-7.913125 185.51203125 -7.913125 185.51203125 -4.8515625 182.32421875 C17.07087442 160.14024555 46.71307016 146.01878339 78.0859375 144.63671875 C77.8796875 143.68796875 77.6734375 142.73921875 77.4609375 141.76171875 C76.07148173 131.41338402 80.96768886 121.63788302 86.68359375 113.30859375 C92.97432244 105.51582346 101.04212699 101.9166393 110.2734375 98.69921875 C115.77783815 96.77369129 119.71099952 94.851581 123.52734375 90.37109375 C130.29939855 82.83527337 140.70313844 79.23470247 150.59375 78.43359375 C163.75099218 78.19794165 174.46744301 82.09443427 183.9609375 91.19921875 C188.16946241 95.1349689 191.76596966 96.98060984 197.21875 98.6875 C211.93630949 103.55993455 220.02549158 111.24393703 227.19140625 124.71484375 C230.72632885 133.14555117 230.39177575 145.16197227 228.046875 153.8984375 C227.20677757 157.1666214 226.90422488 159.12372457 227.3984375 162.38671875 C227.54732422 163.46179688 227.54732422 163.46179688 227.69921875 164.55859375 C228.05415887 166.61678715 228.05415887 166.61678715 228.59301758 168.5246582 C231.14206741 179.44681277 229.68879576 191.99669703 224.0859375 201.63671875 C216.56902009 211.6547443 208.18635976 217.92682681 196.2109375 221.32421875 C190.30388149 223.19900227 186.78447594 226.18161921 182.38671875 230.453125 C174.35850182 238.07243445 164.08119512 241.60521371 153.0859375 241.63671875 C141.02305759 240.93786173 131.47106158 237.22227288 122.8984375 228.63671875 C118.39243578 224.26765775 114.44744144 222.34291705 108.5859375 220.51171875 C96.71724507 216.78749047 88.14715878 210.75171037 82.0859375 199.63671875 C78.47838034 192.12373274 77.37503472 184.91935422 77.0859375 176.63671875 C66.51869119 178.19333108 56.90043415 180.22712462 47.0859375 184.63671875 C46.09207031 185.06726563 45.09820312 185.4978125 44.07421875 185.94140625 C18.73270133 197.66806921 4.6868263 219.3223974 -6.9140625 243.63671875 C-5.08415771 243.59744263 -5.08415771 243.59744263 -3.21728516 243.55737305 C1.34860586 243.46624402 5.91441803 243.40924334 10.48095703 243.36206055 C12.44984497 243.33705828 14.41864143 243.30304475 16.38720703 243.25952148 C38.66767343 242.7795824 38.66767343 242.7795824 46.9597168 250.34667969 C53.72034892 257.27514014 54.43180434 264.99456969 54.6796875 274.26953125 C55.13194933 278.01808602 56.11565963 280.43037032 58.0859375 283.63671875 C61.64931302 286.01230243 63.47848906 285.92207191 67.7109375 286.07421875 C77.5750505 286.68311461 84.74876657 288.81531267 92.0859375 295.63671875 C97.09913877 301.83725717 98.33254882 308.1692888 98.35336304 316.016922 C98.35789415 316.72638542 98.36242526 317.43584885 98.36709368 318.16681117 C98.37967838 320.52639552 98.37812119 322.88574729 98.37646484 325.24536133 C98.3824538 326.94443557 98.3892602 328.6435071 98.39682007 330.34257507 C98.41444976 334.9460056 98.41917417 339.54936171 98.42045164 344.15282273 C98.4218755 347.03227078 98.42614956 349.91170005 98.43144608 352.79114342 C98.44993626 362.84620739 98.45811795 372.90121842 98.45654297 382.95629883 C98.45534182 392.31361961 98.4764416 401.67070964 98.5080303 411.02797204 C98.53422284 419.074923 98.54490902 427.12179872 98.54363215 435.16879195 C98.5431234 439.96903872 98.54875857 444.76908032 98.56998825 449.56928444 C98.58942091 454.08626622 98.5894609 458.60284815 98.57495499 463.11984444 C98.57287202 464.77175229 98.57753709 466.42368551 98.5896759 468.07555008 C98.66200594 478.60546077 97.77601184 486.88454404 91.9609375 495.94921875 C82.11599438 505.15210037 71.34631598 504.35342545 58.6484375 504.28369141 C56.57453648 504.29047382 54.50064148 504.29938044 52.42675781 504.3102417 C46.81513602 504.3329672 41.20397568 504.32422641 35.59234619 504.30834627 C29.70868726 504.29565237 23.8250668 504.30743708 17.94140625 504.3152771 C8.06242814 504.32436347 -1.81636283 504.3124122 -11.6953125 504.28857422 C-23.10279844 504.26136506 -34.5098375 504.27017992 -45.91731262 504.29770625 C-55.72654535 504.32042504 -65.53564386 504.3235838 -75.34489441 504.3105129 C-81.19696371 504.30273368 -87.04882323 504.30163484 -92.90087891 504.31819534 C-98.40373566 504.33268103 -103.90601847 504.32254308 -109.40881348 504.29372406 C-111.42353362 504.28713519 -113.43830239 504.28897308 -115.45300293 504.30003738 C-136.5544615 504.40520299 -136.5544615 504.40520299 -145.3515625 496.42578125 C-145.8671875 495.71164062 -146.3828125 494.9975 -146.9140625 494.26171875 C-147.7184375 493.19824219 -147.7184375 493.19824219 -148.5390625 492.11328125 C-151.54698806 486.69559714 -152.16538521 481.32478044 -152.18148804 475.21182251 C-152.18601915 474.49756997 -152.19055026 473.78331742 -152.19521868 473.04742086 C-152.20780443 470.67168347 -152.20624613 468.29617704 -152.20458984 465.92041016 C-152.21057868 464.20986133 -152.21738505 462.49931519 -152.22494507 460.78877258 C-152.24257465 456.15441855 -152.24729912 451.52013843 -152.24857664 446.88575411 C-152.25000036 443.98755282 -152.25427411 441.0893702 -152.25957108 438.19117355 C-152.27806028 428.07242392 -152.28624295 417.9537269 -152.28466797 407.83496094 C-152.28346641 398.41513686 -152.30457445 388.99554186 -152.3361553 379.57577574 C-152.36233601 371.47703624 -152.37303453 363.37837149 -152.37175715 355.27959001 C-152.37124811 350.44751764 -152.37689955 345.615649 -152.39811325 340.78361893 C-152.41752627 336.23791383 -152.41759924 331.69260622 -152.40307999 327.14688683 C-152.40099469 325.48327107 -152.40567612 323.81963023 -152.4178009 322.15605736 C-152.48861816 311.76254696 -151.64723685 304.18314922 -145.7265625 295.38671875 C-138.63507956 288.45282432 -131.59070821 286.67868651 -121.9140625 286.38671875 C-116.22469139 286.17095566 -116.22469139 286.17095566 -111.6015625 283.26171875 C-108.92771748 279.10240428 -108.78645489 275.86118201 -108.6015625 271.01171875 C-107.99684434 261.98746313 -105.56836834 255.00170694 -98.9140625 248.63671875 C-89.81276446 241.43607772 -78.20447256 243.08288856 -67.2890625 243.32421875 C-65.31122613 243.34933465 -63.33335901 243.372142 -61.35546875 243.39257812 C-56.54089968 243.44730845 -51.72782396 243.53339868 -46.9140625 243.63671875 C-60.32824833 215.46278833 -77.87523329 192.73077372 -108.10546875 181.4453125 C-115.60398961 178.99994649 -123.09621693 177.60915126 -130.9140625 176.63671875 C-130.95273437 177.74466797 -130.95273437 177.74466797 -130.9921875 178.875 C-131.74621501 192.36181016 -136.1199079 203.24008023 -146.05859375 212.671875 C-151.82644278 217.14269495 -158.02834127 219.15805864 -164.87133789 221.37060547 C-169.81111538 223.03906921 -172.87326835 224.77628481 -176.2578125 228.8359375 C-183.5716296 236.78798864 -194.61225718 240.87587038 -205.1875 241.62890625 C-216.09821945 241.66016906 -226.8955187 239.07957575 -235.16015625 231.60546875 C-236.47406526 230.23265154 -237.77788885 228.85009445 -239.0703125 227.45703125 C-243.50117636 223.08249193 -249.08778082 221.56230329 -254.9140625 219.76171875 C-260.54010006 217.94298711 -264.53652496 215.56892238 -268.9140625 211.63671875 C-269.53023438 211.11207031 -270.14640625 210.58742187 -270.78125 210.046875 C-277.153253 204.23549887 -282.29414943 195.3194298 -283.1027832 186.60229492 C-283.18233366 184.31856559 -283.18694992 182.04664646 -283.1640625 179.76171875 C-283.17179687 178.99730469 -283.17953125 178.23289063 -283.1875 177.4453125 C-283.17435443 173.57394342 -282.88596337 170.1094111 -281.87890625 166.36328125 C-281.03351457 163.09808425 -280.73256048 161.14832245 -281.2265625 157.88671875 C-281.32582031 157.17 -281.42507813 156.45328125 -281.52734375 155.71484375 C-281.88160324 153.65709867 -281.88160324 153.65709867 -282.42333984 151.75317383 C-285.11602981 140.13977616 -283.20614721 127.88579269 -277.21875 117.7734375 C-270.26754592 107.3747739 -260.87986782 101.37394187 -248.89453125 98.08203125 C-244.05459128 96.64286376 -241.2088413 94.24106022 -237.5390625 90.76171875 C-228.05484797 81.77529449 -217.73835645 78.09630157 -204.7421875 78.38671875 C-193.74476648 79.35886646 -184.93283891 83.62865209 -177.0390625 91.19921875 C-172.82896339 95.13644106 -169.23004271 96.97924335 -163.77734375 98.69140625 C-150.43706122 103.09570144 -141.25668919 110.12985175 -134.9140625 122.63671875 C-131.73388962 128.98464196 -130.95757073 135.56663182 -130.9140625 142.63671875 C-131.2440625 143.29671875 -131.5740625 143.95671875 -131.9140625 144.63671875 C-130.93050781 144.71148437 -129.94695312 144.78625 -128.93359375 144.86328125 C-93.84459448 147.99622761 -67.54963407 164.00114718 -42.9140625 188.63671875 C-42.5840625 176.09671875 -42.2540625 163.55671875 -41.9140625 150.63671875 C-44.8840625 149.64671875 -44.8840625 149.64671875 -47.9140625 148.63671875 C-50.00390625 147.33984375 -50.00390625 147.33984375 -51.8515625 145.88671875 C-52.53476563 145.35820312 -53.21796875 144.8296875 -53.921875 144.28515625 C-55.17853454 143.24533208 -56.40777918 142.17055835 -57.59375 141.05078125 C-61.72268427 137.15891498 -65.59285155 135.47983834 -70.94921875 133.6796875 C-83.20410551 129.3686799 -92.24305139 123.24662673 -98.3515625 111.57421875 C-102.88227745 101.60915596 -104.90968257 91.17264285 -101.9140625 80.32421875 C-100.38886624 74.70005752 -100.4944913 70.00582602 -101.9140625 64.44921875 C-104.65690437 52.86170563 -103.13377683 41.27493584 -97.37109375 30.84375 C-89.69029793 19.22588721 -80.17345549 13.99110989 -67.1640625 9.76171875 C-62.49181553 8.12279761 -59.98545804 6.07889135 -56.71484375 2.44140625 C-53.30420124 -0.97663461 -49.18007891 -3.17046908 -44.9140625 -5.36328125 C-44.25148437 -5.70617187 -43.58890625 -6.0490625 -42.90625 -6.40234375 C-28.72984793 -12.35087325 -12.08938868 -8.42015317 0 0 Z M-53.40625 12.14453125 C-57.35379433 16.05116838 -61.60393492 17.81177231 -66.7890625 19.63671875 C-77.84942631 23.54260723 -85.87267061 28.35249488 -91.16796875 39.20703125 C-94.69014776 47.82225656 -94.91805346 55.60319305 -92.3671875 64.4765625 C-90.94649267 71.24935769 -91.56619061 78.06840942 -93.45703125 84.65234375 C-95.34359537 92.8435794 -93.86150234 101.61713938 -89.625 108.83203125 C-83.53079531 117.40302501 -76.26265249 122.38802869 -66.24609375 125.453125 C-59.49991937 127.57498239 -55.58890784 130.48283493 -50.53125 135.37890625 C-43.36361278 141.5623306 -34.61824369 145.02566013 -25.1484375 144.84765625 C-14.99596171 143.88920574 -7.28509096 138.874827 -0.0390625 132.01171875 C3.71887691 128.61769047 7.38044404 127.21518605 12.1484375 125.65234375 C23.1250397 121.85724192 31.5045978 116.92977246 36.9609375 106.51171875 C40.52585063 99.12219682 41.41977864 90.69015779 39.0859375 82.76171875 C37.25385272 76.29707675 37.22850226 69.0354399 39.0859375 62.57421875 C41.6734146 53.49929906 40.25394197 44.98509566 36.0859375 36.63671875 C30.09543361 26.54661273 21.67068744 22.46613969 10.9609375 18.76171875 C4.92828515 16.66928405 1.07165262 14.43771876 -3.1875 9.53125 C-8.27373628 3.95019888 -15.24685849 0.96353693 -22.68359375 0.30078125 C-35.29369717 0.01925048 -44.38354865 3.02735135 -53.40625 12.14453125 Z M-231.63671875 98.4609375 C-236.97151622 103.55781947 -242.35199302 105.85714495 -249.3515625 108.01171875 C-259.51382669 111.19602833 -265.45427817 115.8484369 -270.72265625 125.109375 C-275.50193592 135.24771581 -274.94145432 146.04084737 -271.9140625 156.63671875 C-271.6359573 160.53019156 -271.83968382 163.37639336 -272.9140625 167.13671875 C-275.24895136 175.83333376 -275.26226579 186.08458024 -271.36328125 194.29296875 C-264.78603164 204.93003011 -256.81001959 209.64372648 -245.2890625 213.57421875 C-239.27223291 215.68434631 -234.85693812 218.89726771 -230.21875 223.21484375 C-223.84929891 229.08066382 -215.69342164 232.76582697 -206.9140625 232.63671875 C-196.25287224 231.74828623 -188.98366384 228.01220209 -181.70703125 220.3359375 C-176.90613681 215.78607022 -171.08045564 213.61338742 -164.8515625 211.69921875 C-155.60857105 208.76307153 -148.64595961 202.92013656 -143.69140625 194.578125 C-139.71299715 186.57852822 -139.16580886 178.76276654 -141.42578125 170.21484375 C-142.78780003 163.02338459 -142.72567145 154.97518526 -140.8515625 147.88671875 C-138.62762441 139.37495571 -140.61574479 131.13122142 -144.9140625 123.63671875 C-150.39444689 114.54730074 -157.29249124 110.28652999 -167.3515625 107.32421875 C-173.82635525 105.40573187 -177.94203776 102.52639568 -182.72265625 97.78515625 C-189.3820616 91.25632748 -197.97596555 87.70445005 -207.2890625 87.19921875 C-217.40536335 87.66310556 -224.47926657 91.55224353 -231.63671875 98.4609375 Z M125.5234375 101.19921875 C121.66286728 104.73676167 117.53711366 106.0579633 112.6484375 107.63671875 C102.86688277 110.81788344 95.79717058 115.13144701 90.30859375 124.12109375 C86.20446964 132.56536188 84.97179123 141.39923992 87.62109375 150.46875 C89.07372873 157.24364425 88.81980496 165.69889126 87.0234375 172.38671875 C84.7310609 181.33870035 87.02198339 188.96121751 91.359375 196.90625 C97.2608863 206.23918303 105.49195768 210.1207131 115.7109375 213.57421875 C121.72776709 215.68434631 126.14306188 218.89726771 130.78125 223.21484375 C137.15886119 229.0881787 145.3003293 232.74997705 154.0859375 232.63671875 C165.19102146 231.84948052 172.86995719 227.17795086 180.39453125 219.234375 C184.80399505 215.06931566 190.40349196 213.51291266 196.0859375 211.76171875 C205.3830745 208.75244393 212.39009858 202.92653158 217.34375 194.49609375 C221.97912248 184.70670572 220.98686968 173.78998136 218.0859375 163.63671875 C217.8078323 159.74324594 218.01155882 156.89704414 219.0859375 153.13671875 C221.74363389 143.23776262 221.1665202 132.5791774 216.0859375 123.63671875 C210.242107 113.74306043 202.30187534 109.85316195 191.61352539 106.59863281 C184.91870234 104.45858838 180.36339996 100.84542326 175.41015625 95.99609375 C169.42593123 90.3403584 161.69262311 87.53490806 153.4609375 87.19921875 C142.04633025 87.85735827 133.44778937 93.2395691 125.5234375 101.19921875 Z M-32.9140625 152.63671875 C-32.95164673 154.98385986 -32.95164673 154.98385986 -32.98999023 157.37841797 C-33.08394383 163.16691719 -33.18419368 168.95529302 -33.28637695 174.74365234 C-33.32977153 177.25208659 -33.3714432 179.76055124 -33.41137695 182.26904297 C-33.46897007 185.86825743 -33.53269593 189.46731817 -33.59765625 193.06640625 C-33.61436874 194.1935202 -33.63108124 195.32063416 -33.64830017 196.48190308 C-33.66824539 197.52283112 -33.68819061 198.56375916 -33.70874023 199.63623047 C-33.72428452 200.55556366 -33.7398288 201.47489685 -33.75584412 202.42208862 C-33.9140625 204.63671875 -33.9140625 204.63671875 -34.9140625 206.63671875 C-37.5859375 207.03515625 -37.5859375 207.03515625 -40.9140625 206.63671875 C-42.97038629 204.52564077 -44.50677487 202.65180189 -46.1640625 200.26171875 C-47.12800068 198.96256174 -48.09681307 197.66700797 -49.0703125 196.375 C-49.54984375 195.7351416 -50.029375 195.0952832 -50.5234375 194.43603516 C-67.29962795 172.72948255 -94.76277168 159.56777453 -121.2265625 154.69921875 C-121.92587891 154.57047363 -122.62519531 154.44172852 -123.34570312 154.30908203 C-127.38179251 153.65188334 -129.77545109 153.80899647 -133.9140625 154.63671875 C-133.9140625 158.26671875 -133.9140625 161.89671875 -133.9140625 165.63671875 C-130.44645556 167.02376152 -128.09346803 167.912444 -124.578125 168.49609375 C-96.36919594 173.47595644 -71.55382317 187.00943795 -54.4140625 210.44921875 C-48.52387815 219.30070679 -43.86949042 228.90484525 -39.09985352 238.39111328 C-37.86823545 240.81594882 -37.86823545 240.81594882 -35.9140625 243.63671875 C-33.98329772 244.05100221 -33.98329772 244.05100221 -31.78125 243.9296875 C-30.97558594 243.92001953 -30.16992188 243.91035156 -29.33984375 243.90039062 C-28.49808594 243.87525391 -27.65632813 243.85011719 -26.7890625 243.82421875 C-25.93957031 243.81068359 -25.09007812 243.79714844 -24.21484375 243.78320312 C-22.11431413 243.74780094 -20.01410957 243.69399276 -17.9140625 243.63671875 C-17.65826416 243.13970459 -17.40246582 242.64269043 -17.13891602 242.13061523 C-14.11434379 236.27214886 -11.03826729 230.44267339 -7.9140625 224.63671875 C-7.53008301 223.92306152 -7.14610352 223.2094043 -6.75048828 222.47412109 C-1.35054938 212.58762944 5.06197687 204.52820833 13.0859375 196.63671875 C13.92125 195.80269531 14.7565625 194.96867187 15.6171875 194.109375 C32.62343087 177.95896531 54.44363176 170.6512146 77.14453125 167.03125 C79.08344491 166.82325252 79.08344491 166.82325252 80.0859375 165.63671875 C80.15820252 163.78384373 80.1697497 161.92837997 80.1484375 160.07421875 C80.13941406 159.06230469 80.13039063 158.05039063 80.12109375 157.0078125 C80.10949219 156.22535156 80.09789062 155.44289062 80.0859375 154.63671875 C74.99659176 153.02456575 70.3716351 154.19770534 65.2734375 155.19921875 C64.33999512 155.38194336 63.40655273 155.56466797 62.44482422 155.75292969 C34.83953629 161.46567099 6.47715309 178.08837455 -9.375 201.82421875 C-9.77976562 202.46359375 -10.18453125 203.10296875 -10.6015625 203.76171875 C-12.9140625 206.63671875 -12.9140625 206.63671875 -16.2265625 207.07421875 C-17.1134375 206.92984375 -18.0003125 206.78546875 -18.9140625 206.63671875 C-20.15746226 204.14991923 -20.07233737 202.41874787 -20.11938477 199.63623047 C-20.1493026 198.07483841 -20.1493026 198.07483841 -20.17982483 196.48190308 C-20.19653732 195.35478912 -20.21324982 194.22767517 -20.23046875 193.06640625 C-20.25124985 191.91504181 -20.27203094 190.76367737 -20.29344177 189.5774231 C-20.35897915 185.88891735 -20.41784178 182.20033872 -20.4765625 178.51171875 C-20.51974373 176.01561737 -20.56335788 173.51952345 -20.60742188 171.0234375 C-20.71466485 164.89460649 -20.81592051 158.76570198 -20.9140625 152.63671875 C-24.8740625 152.63671875 -28.8340625 152.63671875 -32.9140625 152.63671875 Z M-93.7890625 256.94921875 C-97.80105706 262.02321187 -99.24295626 266.12208776 -99.4140625 272.57421875 C-99.83582408 280.43056191 -101.27100007 285.83242597 -106.9140625 291.63671875 C-111.50371368 294.40124548 -115.03093863 295.00601765 -120.3515625 295.13671875 C-127.69368581 295.51065647 -131.95243245 296.14625711 -137.6640625 300.94921875 C-143.20760389 307.57067096 -143.33537223 313.1084823 -143.25463867 321.42529297 C-143.25500028 322.62539064 -143.25536188 323.82548832 -143.25573444 325.06195259 C-143.253499 328.93860806 -143.23066948 332.8148284 -143.20703125 336.69140625 C-143.20261928 339.08796989 -143.19955943 341.48453641 -143.19787598 343.88110352 C-143.18216036 352.7580194 -143.14027665 361.63487337 -143.1015625 370.51171875 C-143.0396875 390.35296875 -142.9778125 410.19421875 -142.9140625 430.63671875 C-66.3540625 430.63671875 10.2059375 430.63671875 89.0859375 430.63671875 C89.2096875 400.93671875 89.2096875 400.93671875 89.3359375 370.63671875 C89.37235352 364.3925 89.40876953 358.14828125 89.44628906 351.71484375 C89.45966954 346.10132276 89.45966954 346.10132276 89.4677124 340.48779297 C89.47384134 337.99394881 89.48788197 335.50011626 89.50823975 333.00634766 C89.53758399 329.22147126 89.54155937 325.43731712 89.54003906 321.65234375 C89.56162771 319.99516327 89.56162771 319.99516327 89.5836525 318.30450439 C89.54444339 310.99636351 88.60159583 305.26802374 83.3046875 299.796875 C82.7375 299.43464844 82.1703125 299.07242188 81.5859375 298.69921875 C81.01875 298.31894531 80.4515625 297.93867188 79.8671875 297.546875 C75.63614884 295.3849627 71.53133775 295.51978677 66.8359375 295.38671875 C60.51160382 295.0659689 55.74601137 294.12864562 51.0859375 289.63671875 C46.60416507 284.0057739 46.0421578 279.91951296 45.7734375 272.88671875 C45.27331359 265.48488481 43.94669105 260.65640305 38.8359375 255.26171875 C32.08960641 251.27525038 24.83532191 251.34292741 17.22290039 251.36206055 C16.16329605 251.35694962 15.10369171 251.35183868 14.01197815 251.34657288 C10.5274584 251.3327319 7.04313764 251.33362942 3.55859375 251.3359375 C1.12536038 251.33204782 -1.30787231 251.32771258 -3.74110413 251.32295227 C-8.83417973 251.31550206 -13.92718599 251.31577287 -19.02026367 251.32104492 C-25.53452628 251.32684062 -32.04850467 251.30989998 -38.5627203 251.28670025 C-43.58571522 251.27194253 -48.60864198 251.27109396 -53.63165474 251.27420998 C-56.03292975 251.27369788 -58.43420868 251.26848125 -60.83546257 251.25839806 C-64.19770474 251.24601053 -67.55939697 251.25283948 -70.92163086 251.2644043 C-71.90528625 251.25676056 -72.88894165 251.24911682 -73.90240479 251.24124146 C-81.29857906 251.29724414 -87.90283425 252.21464386 -93.7890625 256.94921875 Z M-142.9140625 439.63671875 C-146.31689718 468.71261854 -146.31689718 468.71261854 -137.7890625 490.32421875 C-131.80805189 495.13503163 -124.86173154 496.08554986 -117.37548828 496.01766968 C-116.56560518 496.02234965 -115.75572208 496.02702962 -114.92129707 496.03185141 C-112.23381827 496.04372459 -109.5468567 496.03437457 -106.859375 496.02490234 C-104.92193303 496.02897146 -102.98449339 496.03431525 -101.04705811 496.04083252 C-95.80329411 496.05447139 -90.55970783 496.04922161 -85.31594086 496.03969526 C-79.81885817 496.0320809 -74.32179034 496.03914921 -68.82470703 496.04385376 C-59.59469888 496.04930613 -50.36476282 496.04213328 -41.13476562 496.02783203 C-30.47547947 496.01150655 -19.81636549 496.01679542 -9.15708351 496.03331125 C0.00750893 496.04694086 9.17204964 496.04883855 18.33664894 496.04099524 C23.80468186 496.03632685 29.27263395 496.03567094 34.74066162 496.04560471 C39.88223042 496.05429353 45.023578 496.0482174 50.16512299 496.03092194 C52.04803857 496.02696734 53.93097288 496.02807348 55.81388092 496.03470993 C58.39195667 496.04295631 60.96933169 496.03256703 63.54736328 496.01766968 C64.28541639 496.02436184 65.02346951 496.03105401 65.78388786 496.03794897 C72.484682 495.96328251 78.67813082 494.57343282 83.9609375 490.32421875 C95.89160686 475.23543103 89.0859375 462.18980605 89.0859375 439.63671875 C12.5259375 439.63671875 -64.0340625 439.63671875 -142.9140625 439.63671875 Z " fill="#000000" transform="translate(282.9140625,8.36328125)"/>
<path d="M0 0 C2.89966745 1.69947397 5.30379071 3.58316314 7.75 5.875 C10.84870764 8.76025747 13.96141392 9.96047451 17.9375 11.375 C26.6215072 14.52195674 31.2456983 18.40272232 35.4375 26.6484375 C38.86966043 34.2903572 39.05927231 40.76613846 37.4375 48.875 C37.26137922 52.24161653 37.11450152 55.58300606 37.9375 58.875 C39.82591479 66.42865917 38.02084309 74.55458138 34.078125 81.1484375 C29.55829074 87.41563036 24.88039037 90.91173323 17.625 93.6875 C13.27163279 95.42659271 9.65169976 97.20416227 6.25 100.5 C0.79983079 105.74099427 -6.06329286 108.00599139 -13.5625 108.375 C-23.15378185 107.88936548 -29.84156756 103.95160236 -36.95703125 97.8203125 C-39.77887773 95.71344661 -42.40158197 94.55760319 -45.6875 93.3125 C-54.68205772 89.82552127 -59.55482679 84.9997574 -63.65234375 76.3046875 C-66.05910699 69.87976589 -66.21980088 63.50420352 -64.5625 56.875 C-64.44676894 53.22947165 -64.34847751 49.94511245 -65.0625 46.375 C-66.67995393 38.28773034 -65.32777986 30.48379977 -61.0859375 23.4140625 C-56.28391452 16.81402179 -51.04209936 12.78889172 -43.1875 10.5625 C-38.23941774 9.0866065 -34.93543823 6.20650065 -31.1171875 2.8125 C-22.50868371 -3.71627352 -9.76311017 -4.64196956 0 0 Z M-29.44140625 13.40234375 C-34.11174197 17.11030726 -38.43389352 19.04703579 -44.078125 20.95703125 C-49.23521951 22.86256145 -52.19969974 25.9768157 -54.77734375 30.80859375 C-56.79495621 36.11862853 -56.93700633 41.43898249 -55.5625 46.875 C-55.46930753 48.76899982 -55.43254239 50.66621533 -55.4375 52.5625 C-55.44136719 54.15771484 -55.44136719 54.15771484 -55.4453125 55.78515625 C-55.5461912 58.44499135 -55.8558478 60.88589912 -56.3125 63.5 C-57.06092863 69.56447319 -54.86081776 74.87605546 -51.19140625 79.6640625 C-46.77918461 83.95525063 -41.41005341 85.50647089 -35.703125 87.51953125 C-32.60374026 88.85720103 -30.77687409 90.17135378 -28.375 92.5 C-24.2574291 96.44492642 -20.22925103 98.18812109 -14.5625 98.875 C-6.95976329 98.69069123 -2.21126278 95.66229569 3.4375 90.875 C6.87438256 88.31561937 9.80081338 86.69059846 13.875 85.5 C19.68791351 83.65043661 23.66199898 80.88362997 26.79296875 75.578125 C29.09425481 70.5200082 29.74583313 66.73035599 28.8046875 61.28515625 C27.81511856 54.78979419 28.21918595 48.10505438 29.125 41.625 C29.81706797 35.46559506 27.95055204 31.25265321 24.6875 26.125 C20.68004018 22.11754018 16.48160168 20.12030577 11.125 18.625 C6.0952248 17.08333945 2.63685061 14.11984908 -1.30078125 10.71484375 C-6.26280547 6.67837845 -10.22207842 6.38124233 -16.53125 6.49609375 C-21.97615361 7.1767067 -25.29699966 10.03339785 -29.44140625 13.40234375 Z " fill="#000000" transform="translate(269.5625,28.125)"/>
<path d="M0 0 C2.8125 2.125 2.8125 2.125 5.375 4.5625 C8.37081818 7.16099481 11.60434269 8.28231875 15.3125 9.625 C24.86235253 13.14793084 29.25060527 17.98635095 33.8125 27.125 C36.12972444 33.73388865 35.39460324 42.42697548 34.25 49.25 C33.64615569 51.95532117 33.64615569 51.95532117 34.265625 53.88671875 C36.11356359 61.45006741 35.81835485 70.18545327 32.12890625 77.1015625 C27.18426194 84.70193565 22.09943929 88.54181084 13.8125 92.125 C9.48350397 94.07927698 5.83315352 95.96089655 2.3125 99.1875 C-4.6364718 105.31438362 -11.55548645 105.6832027 -20.5625 105.46875 C-27.52386438 104.80862062 -31.92329853 102.44216723 -36.9375 97.6875 C-40.2792314 94.53958903 -43.35990084 93.13567114 -47.6875 91.625 C-56.75303314 88.39330531 -61.83106602 83.72388925 -66.27734375 75.23828125 C-69.63410579 67.44425436 -68.56775267 58.27035074 -67.30859375 50.0625 C-67.17088166 47.85910652 -67.64099808 46.26026106 -68.1875 44.125 C-69.06163417 33.42043888 -67.68807243 26.1058734 -60.8125 17.8125 C-56.31965141 13.02581532 -52.03589859 10.36124967 -45.8125 8.3125 C-41.82200235 6.95185862 -39.21911026 5.55056628 -36.1875 2.625 C-25.79970808 -7.25296164 -11.80228133 -6.94251843 0 0 Z M-32.9375 11.5625 C-36.29912887 14.74223713 -39.37605908 16.08285827 -43.75 17.5625 C-51.13723613 20.15917349 -54.71959666 23.94029434 -58.625 30.5625 C-59.59475789 34.98028595 -59.79885492 39.70801545 -58.68359375 44.1171875 C-58.12713745 46.36930197 -58.05465785 48.37014467 -58.0625 50.6875 C-58.05992188 51.45191406 -58.05734375 52.21632812 -58.0546875 53.00390625 C-58.1875 55.125 -58.1875 55.125 -59.1875 58.125 C-59.93200067 64.99637499 -59.27859068 70.45381741 -55.1875 76.125 C-50.61843634 81.64703979 -44.94980392 83.43229403 -38.34375 85.765625 C-34.43741957 87.44805444 -31.91134949 89.70185392 -28.87109375 92.609375 C-24.57681157 96.47522531 -19.22601664 96.56988945 -13.70703125 96.4375 C-8.06732389 95.73800141 -4.01622225 92.99103136 0.0625 89.1875 C3.06948555 86.43569441 6.0173535 85.09302309 9.8125 83.625 C16.57856005 80.96599768 20.9981815 78.16837296 24.75 71.875 C26.46456155 65.82360629 26.36838593 60.18801582 24.8125 54.125 C24.59254988 47.96639651 24.59254988 47.96639651 25.3046875 45.2421875 C26.60883938 39.80487737 26.47200394 33.99937963 24.625 28.75 C20.53804801 22.83096608 16.18617204 20.03423706 9.8125 17.125 C3.96340634 14.42964963 -0.83860395 11.75402 -5.609375 7.41796875 C-8.92467317 4.70172198 -12.34990047 4.21982259 -16.5 3.75 C-23.16832787 4.42813504 -28.13060152 6.92763788 -32.9375 11.5625 Z " fill="#000000" transform="translate(92.1875,117.875)"/>
<path d="M0 0 C1.64977925 1.40139727 3.29429161 2.80901754 4.93359375 4.22265625 C7.5995938 6.1933569 9.80933935 7.06953026 12.96484375 8.03125 C20.84528498 10.5686403 27.23609904 16.07718658 31.02734375 23.46875 C34.24217141 31.57570672 34.00545818 39.54622702 32.90234375 48.15625 C32.50859647 51.69997554 32.62895824 52.87559077 33.46484375 56.09375 C34.37523581 66.27223176 32.73661525 74.31577068 26.33984375 82.40625 C21.48009473 87.5788584 15.36831483 89.99243338 8.83984375 92.46875 C5.72992916 93.96611628 4.01259802 95.28704798 1.52734375 97.59375 C-5.70629754 104.09852629 -12.25515735 104.66724601 -21.9140625 104.4375 C-30.02669255 103.66736899 -34.83243929 99.93211023 -40.9453125 94.8828125 C-44.04088583 92.74439231 -47.16453833 91.4772009 -50.66015625 90.09375 C-59.27373811 86.58520049 -63.93480188 82.31191168 -67.80859375 73.890625 C-70.65022462 66.86293576 -70.22088789 58.39329666 -68.97265625 50.96875 C-68.36896767 48.26286983 -68.36896767 48.26286983 -68.98828125 46.328125 C-71.17919933 37.37665969 -70.01361706 28.07516531 -65.53515625 20.09375 C-61.09745855 13.30668292 -54.09795532 9.15734809 -46.47265625 6.65625 C-42.1788352 5.20762755 -39.11834666 2.57774013 -35.63671875 -0.2578125 C-25.14617736 -8.48645277 -10.54731008 -7.9307971 0 0 Z M-33.16015625 9.40625 C-37.58998029 13.58948344 -42.65337933 15.44761924 -48.265625 17.5390625 C-53.19104508 19.881138 -56.53344307 23.59118023 -59.53515625 28.09375 C-60.55834658 31.16332098 -60.66887564 33.31815323 -60.66015625 36.53125 C-60.66273438 37.47871094 -60.6653125 38.42617187 -60.66796875 39.40234375 C-60.54907018 41.81178824 -60.1536569 43.77920461 -59.53515625 46.09375 C-59.31596787 52.23102455 -59.31596787 52.23102455 -60.0234375 55.015625 C-61.58980613 61.37675562 -61.15429946 67.60486491 -57.83984375 73.28515625 C-53.03953625 79.93947473 -47.28022522 82.05222446 -39.6953125 84.734375 C-35.77893695 86.41904582 -33.20498763 88.66481342 -30.15234375 91.578125 C-25.9992997 95.47034986 -21.45859878 95.48065468 -16.015625 95.3359375 C-10.36376365 94.78410222 -6.60734677 92.22268897 -2.34765625 88.71875 C1.15389387 85.86474682 4.44637931 84.11365689 8.65234375 82.46875 C15.82417591 79.65287181 20.48455895 76.54683011 23.78125 69.3515625 C25.30942762 64.30421013 25.12124149 59.06294323 23.46484375 54.09375 C23.37236994 52.61688889 23.33485304 51.13599499 23.33984375 49.65625 C23.33597656 48.51349609 23.33597656 48.51349609 23.33203125 47.34765625 C23.46275306 45.12923029 23.91061006 43.23876129 24.46484375 41.09375 C25.21559425 34.54622107 24.30717552 29.50742341 20.46484375 24.09375 C16.06329273 18.89526077 10.76727494 16.91560091 4.53125 14.51953125 C0.37164913 12.58544932 -2.78879528 9.91393348 -6.18359375 6.86328125 C-14.86359638 0.33165137 -25.72355867 2.23920926 -33.16015625 9.40625 Z " fill="#000000" transform="translate(454.53515625,118.90625)"/>
<path d="M0 0 C7.69328017 5.61474483 11.39306588 13.39826427 13.61328125 22.51953125 C16.10209885 38.48315928 11.07560814 53.52383018 2.1875 66.68359375 C-5.97298372 77.3092236 -21.42494535 95.57777587 -35.27734375 98.4765625 C-44.1614801 98.97229992 -49.19177352 95.35568601 -56 90 C-56.96421875 89.25621094 -57.9284375 88.51242187 -58.921875 87.74609375 C-74.13749968 75.66186144 -88.65723525 59.48973068 -91.75 39.515625 C-92.91814458 27.76117021 -91.8544317 16.71566704 -84.625 6.9375 C-79.43774333 0.89860417 -73.69152624 -2.52195349 -65.703125 -3.3359375 C-56.55040476 -3.43947506 -49.87743485 -2.07490458 -42.125 2.8125 C-40.12796721 4.21182889 -40.12796721 4.21182889 -38.140625 3.7265625 C-35.76014561 2.91858957 -33.78813165 1.84140415 -31.625 0.5625 C-21.2211336 -5.28123015 -10.57528215 -6.18355368 0 0 Z M-33.25 12.3125 C-36.67926505 14.41682174 -38.03911098 14.77664491 -42 14 C-44.36226531 12.62620032 -46.5553845 11.13025101 -48.75390625 9.5078125 C-54.82346801 5.4332893 -60.87053069 5.12039015 -68 6 C-73.72411583 8.01751624 -77.13881375 11.74168071 -80.03515625 16.96875 C-84.28802748 25.92216311 -83.86231058 34.84263652 -81.03125 44.1484375 C-77.40189851 54.18414426 -72.10409548 62.08833416 -65 70 C-64.47019531 70.61230469 -63.94039062 71.22460938 -63.39453125 71.85546875 C-59.5321297 76.03559999 -55.02049441 79.44360887 -50.5 82.875 C-49.87077637 83.36419922 -49.24155273 83.85339844 -48.59326172 84.35742188 C-44.48563778 87.39186352 -41.27990396 89.04905834 -36 89 C-33.16786372 87.73937401 -33.16786372 87.73937401 -30.6875 85.625 C-29.74519531 84.8825 -28.80289063 84.14 -27.83203125 83.375 C-26.43017578 82.199375 -26.43017578 82.199375 -25 81 C-23.70642578 79.9171875 -23.70642578 79.9171875 -22.38671875 78.8125 C-8.26801024 66.51626863 3.08590435 52.76200905 5.2734375 33.60546875 C5.64629239 25.4170017 3.17950843 17.36339608 -2 11 C-6.81936433 6.33282613 -10.80932274 4.58343801 -17.4609375 4.6484375 C-23.39226664 5.46969846 -28.45593614 8.90133917 -33.25 12.3125 Z " fill="#000000" transform="translate(295,321)"/>
<path d="M0 0 C4.42779057 2.40194817 7.13887299 5.51791556 9 10.1875 C11.25944566 18.60393509 9.60933254 26.22046876 5.4375 33.72265625 C0.62101071 41.35312706 -5.88847717 46.94423858 -14 51 C-18.27182686 51.72933629 -20.76411217 50.80815803 -24.3125 48.5625 C-33.75734572 41.79794833 -41.5172854 34.03384793 -43.75 22.33203125 C-44.42569578 16.02905659 -43.49253356 10.36353369 -40 5 C-34.74387339 0.25666623 -31.65160475 -0.19766043 -24.75 -0.1796875 C-22 0 -22 0 -18.75 1.1875 C-15.32242657 2.20019215 -14.01917812 1.21511047 -10.91796875 -0.3046875 C-7.18613298 -1.65757297 -3.7296329 -1.16633396 0 0 Z M-11.3125 10.0625 C-14.08755724 11.7228408 -14.86231978 12.00529539 -18.25 11.875 C-21 11 -21 11 -24 9 C-27.5 8.5 -27.5 8.5 -31 9 C-33.6072841 11.17273675 -33.99306438 12.97423913 -34.875 16.25 C-35.12101479 23.63044367 -32.41640264 27.82709864 -27.75 33.25 C-24.11394116 37.1181477 -20.79418086 39.75591534 -16 42 C-4.74847431 32.7659432 -4.74847431 32.7659432 1.0625 19.8125 C0.99367427 15.61413073 0.31578032 13.47367048 -2 10 C-6.14993739 7.23337507 -7.08143643 7.42806419 -11.3125 10.0625 Z " fill="#000000" transform="translate(273,343)"/>
<path d="M0 0 C5.3015322 3.16744085 9.27157128 7.85198729 12.0625 13.3125 C13.68914905 22.53017796 13.0189016 29.65045372 7.625 37.5 C3.55034561 42.16794198 -1.78337627 44.99717268 -7.9140625 45.85546875 C-15.08467965 46.2291488 -20.48793366 44.61372937 -26.375 40.5 C-31.0623173 36.23968469 -34.0052736 31.85763165 -34.7109375 25.44921875 C-34.80930211 17.23577416 -34.26949541 11.59775718 -28.50390625 5.53125 C-20.64318363 -1.72022947 -10.26607776 -4.54037882 0 0 Z M-23.75 14.1875 C-25.84738534 18.46293935 -26.21342582 21.82158392 -25.375 26.5 C-22.72141502 31.61762818 -19.84382174 34.67705942 -14.375 36.5 C-8.83928006 37.15126117 -5.5771261 36.06677692 -1.109375 32.984375 C2.56820257 29.8368987 3.49695403 26.69509573 4 22 C3.44105046 16.78313767 1.96292735 13.70739786 -1.9375 10.1875 C-9.95706106 4.63549619 -17.56216372 7.18547474 -23.75 14.1875 Z " fill="#000000" transform="translate(447.375,146.5)"/>
<path d="M0 0 C5.2032508 3.48440314 9.88360075 8.29881469 11.73828125 14.39453125 C13.02345367 22.18298578 11.78861578 29.98239002 7.17578125 36.45703125 C2.62185798 41.43097657 -1.74439048 44.08294957 -8.55078125 44.70703125 C-16.31678052 45.02160337 -22.55565727 44.0703311 -28.60546875 38.94921875 C-33.49014352 33.80115466 -35.37904552 27.95482095 -36.26171875 21.01953125 C-35.32147383 13.36325121 -32.50618954 7.05913978 -26.734375 1.86328125 C-18.82548853 -3.95921186 -8.70809326 -4.37724759 0 0 Z M-23.63671875 12.14453125 C-26.21447791 16.04799512 -27.25216304 18.79331181 -26.82421875 23.45703125 C-25.57431817 27.95013791 -23.56156394 31.35876544 -19.63671875 33.95703125 C-15.44383256 35.97249586 -11.37917012 36.25497893 -6.82421875 35.45703125 C-1.97343685 33.26045077 0.44136196 30.3722823 2.5390625 25.6015625 C3.62533005 21.94290676 3.5296531 19.02697755 2.17578125 15.45703125 C-0.09824839 11.81715362 -2.59956318 9.1612082 -6.32421875 7.01953125 C-13.62269922 5.37737314 -18.24667098 6.99404116 -23.63671875 12.14453125 Z " fill="#000000" transform="translate(267.82421875,59.54296875)"/>
<path d="M0 0 C5.88220048 3.50190325 10.57472749 8.96233861 12.625 15.5 C13.46330369 23.11296726 13.46288014 30.26767205 8.625 36.5 C3.26029697 42.31618794 -2.69350882 45.57275434 -10.6875 46 C-17.38294246 45.79738689 -22.95054177 43.48921534 -28.00390625 39.078125 C-33.28171617 33.21739279 -34.97829785 26.96629723 -34.71484375 19.2734375 C-33.77055304 11.56715701 -30.31739825 6.82531702 -24.47265625 1.91015625 C-17.52341722 -2.76149234 -7.68950655 -3.40083851 0 0 Z M-23.75 14.25 C-25.69891549 18.14783097 -26.16914273 21.2673011 -25.375 25.5 C-23.67777228 30.4510844 -20.91675835 33.53167126 -16.23046875 35.83984375 C-12.47389423 37.17639342 -9.26082113 37.20668666 -5.51953125 35.8046875 C-1.14295587 33.5837388 1.49671663 31.01196074 3.625 26.5 C4.44188403 21.80923291 4.10379303 18.47600118 2 14.1875 C-1.11476664 10.66289565 -3.76326389 7.95951551 -8.55078125 7.1171875 C-15.44933302 6.76936136 -19.22861937 9.01471716 -23.75 14.25 Z " fill="#000000" transform="translate(86.375,146.5)"/>
</svg>
