<?xml version="1.0" encoding="UTF-8"?>
<svg version="1.1" xmlns="http://www.w3.org/2000/svg" width="256" height="256">
<path d="M0 0 C0.91136719 -0.01160156 1.82273438 -0.02320313 2.76171875 -0.03515625 C8.43719917 -0.01058707 12.50255416 0.63194303 17.5 3.375 C21.81802181 8.13589584 21.6562575 11.30595866 21.5 17.375 C22.14764816 17.36611755 22.79529633 17.35723511 23.46257019 17.3480835 C30.26068206 17.25894257 37.05862539 17.19899122 43.85717773 17.15527344 C46.38751988 17.13527456 48.91781651 17.10806647 51.44799805 17.07324219 C55.10476989 17.0242064 58.76092577 17.0019129 62.41796875 16.984375 C63.53205612 16.96372986 64.64614349 16.94308472 65.79399109 16.92181396 C76.13657357 16.91892106 87.15572313 18.64222124 94.78125 26.203125 C100.42313365 33.33241434 102.79604281 40.13990174 103.1796875 49.1171875 C103.29877851 51.61341987 103.29877851 51.61341987 105.6875 53.5 C107.0796875 54.428125 107.0796875 54.428125 108.5 55.375 C119.2330381 68.83257855 120.69195774 82.68434377 119.5 99.375 C117.62801005 109.5907166 112.4436885 118.65636838 104.30078125 125.15625 C100.5989822 127.66158905 97.04483718 129.375 92.5 129.375 C92.2421875 130.66083984 91.984375 131.94667969 91.71875 133.27148438 C90.57931225 138.38052804 88.87702989 143.15284939 87 148.03125 C86.65188263 148.95185211 86.30376526 149.87245422 85.94509888 150.82095337 C84.8021512 153.84105473 83.65111125 156.85800185 82.5 159.875 C80.86902422 164.17320597 79.24257129 168.47311415 77.6171875 172.7734375 C77.19863495 173.87952362 76.7800824 174.98560974 76.34884644 176.12521362 C73.32381115 184.13855929 70.36751003 192.17519607 67.4453125 200.2265625 C67.03835144 201.34565002 66.63139038 202.46473755 66.21209717 203.61773682 C64.62537409 207.98271858 63.03910989 212.34778162 61.46826172 216.71850586 C60.38415923 219.73414967 59.29056229 222.74620291 58.1953125 225.7578125 C57.87934113 226.64634918 57.56336975 227.53488586 57.23782349 228.4503479 C54.96705431 234.65870897 52.54156762 241.02132359 46.5 244.375 C43.38561767 244.83339737 40.29185593 244.80524369 37.1484375 244.79492188 C36.20152542 244.80339142 35.25461334 244.81186096 34.27900696 244.82058716 C31.14420165 244.84400855 28.00988627 244.84497749 24.875 244.84375 C22.68985804 244.85085254 20.50471794 244.85855167 18.31958008 244.86682129 C13.7330203 244.88028086 9.14663262 244.88183002 4.56005859 244.87597656 C-1.29285364 244.8701035 -7.14492976 244.90056623 -12.99768066 244.94109344 C-17.51556784 244.9670683 -22.03325695 244.96983852 -26.5512085 244.96620178 C-28.70719489 244.96788637 -30.8631911 244.97746459 -33.019104 244.99534607 C-53.42592518 245.14587319 -53.42592518 245.14587319 -62.37963867 240.44787598 C-64.55008323 239.1492588 -64.55008323 239.1492588 -67.5 239.375 C-68.80269134 239.82332884 -70.09336953 240.30710232 -71.375 240.8125 C-84.35352416 245.19458651 -97.36446318 243.41677514 -109.6875 237.8125 C-122.098749 231.07732888 -130.7139662 221.08887292 -135.1484375 207.6796875 C-136.69014692 202.26248835 -137.11406146 197.11622736 -137.125 191.5 C-137.12878662 190.48349365 -137.13257324 189.4669873 -137.13647461 188.41967773 C-136.89684495 177.37917937 -134.10891243 167.10843266 -131.12890625 156.53515625 C-129.10382426 149.21932455 -127.89128424 142.71786558 -129.375 135.1875 C-129.55804688 134.22457031 -129.74109375 133.26164063 -129.9296875 132.26953125 C-130.32925852 130.24157148 -130.75324164 128.21834014 -131.1953125 126.19921875 C-131.5 123.375 -131.5 123.375 -129.5 120.375 C-117.33391021 118.8809188 -103.61874153 123.86026262 -92.5 128.375 C-92.5825 127.34375 -92.665 126.3125 -92.75 125.25 C-92.3157297 118.51881035 -87.52803817 114.06171667 -83.25 109.125 C-79.8656008 105.17756752 -76.53410902 101.20783123 -73.3125 97.125 C-70.68999661 93.83612279 -68.04345144 90.57469683 -65.3125 87.375 C-64.39404297 86.2921875 -64.39404297 86.2921875 -63.45703125 85.1875 C-59.80133418 81.80178455 -56.07050935 81.12271334 -51.19921875 81.1796875 C-49.73452148 81.18935547 -49.73452148 81.18935547 -48.24023438 81.19921875 C-46.72913086 81.22435547 -46.72913086 81.22435547 -45.1875 81.25 C-43.64739258 81.26353516 -43.64739258 81.26353516 -42.07617188 81.27734375 C-39.55054101 81.30083799 -37.0253919 81.33368869 -34.5 81.375 C-34.51571045 80.80056152 -34.5314209 80.22612305 -34.54760742 79.63427734 C-34.61035513 77.00628691 -34.64911506 74.37845463 -34.6875 71.75 C-34.71263672 70.84636719 -34.73777344 69.94273438 -34.76367188 69.01171875 C-34.8218871 63.69472818 -34.53448031 59.95206816 -31.5 55.375 C-28.0253967 52.63189213 -25.82988892 52.2446689 -21.5 52.375 C-21.5314209 50.46823486 -21.5314209 50.46823486 -21.56347656 48.52294922 C-21.63604256 43.79308397 -21.68186025 39.06326765 -21.71972656 34.33300781 C-21.7398042 32.2883272 -21.76707225 30.24370373 -21.80175781 28.19921875 C-21.85044519 25.25506463 -21.87300744 22.31167166 -21.890625 19.3671875 C-21.91127014 18.4575827 -21.93191528 17.54797791 -21.95318604 16.61080933 C-21.95514416 11.034149 -21.30948967 7.7505102 -17.5 3.375 C-11.79995921 -0.03638805 -6.53109829 -0.08313987 0 0 Z M-10.5 10.375 C-12.6519437 13.60291555 -12.70086443 14.65900809 -12.5 18.375 C-11.83613281 18.38917969 -11.17226562 18.40335938 -10.48828125 18.41796875 C-3.20837684 18.81118986 -3.20837684 18.81118986 0.5625 21.8125 C3.9626492 26.30947152 4.02608969 29.85584088 3.5 35.375 C1.77128428 39.56031174 -0.33039478 41.61450002 -4.5 43.375 C-7.2219085 43.60772824 -9.75859522 43.51439346 -12.5 43.375 C-12.5 46.345 -12.5 49.315 -12.5 52.375 C-4.25 52.375 4 52.375 12.5 52.375 C12.54585216 46.71480523 12.58569491 41.05525189 12.60986328 35.39501953 C12.61993582 33.46856506 12.63359443 31.54212592 12.65087891 29.61572266 C12.67507241 26.85054748 12.68647036 24.085574 12.6953125 21.3203125 C12.70563507 20.4556839 12.71595764 19.5910553 12.72659302 18.70022583 C12.72699106 16.59046479 12.62265243 14.48119282 12.5 12.375 C9.56127345 9.43627345 6.9763338 10.08330998 2.95703125 10.05273438 C1.98121094 10.05595703 1.00539062 10.05917969 0 10.0625 C-0.97582031 10.04638672 -1.95164063 10.03027344 -2.95703125 10.01367188 C-3.88902344 10.01302734 -4.82101563 10.01238281 -5.78125 10.01171875 C-6.63783203 10.00873779 -7.49441406 10.00575684 -8.37695312 10.00268555 C-9.42786133 10.1869812 -9.42786133 10.1869812 -10.5 10.375 Z M-10.5 27.375 C-11.16 29.025 -11.82 30.675 -12.5 32.375 C-11.84 33.035 -11.18 33.695 -10.5 34.375 C-7.89719432 34.05458603 -7.89719432 34.05458603 -5.5 33.375 C-5.17 32.385 -4.84 31.395 -4.5 30.375 C-5.16 29.385 -5.82 28.395 -6.5 27.375 C-7.82 27.375 -9.14 27.375 -10.5 27.375 Z M21.5 27.375 C21.5 29.685 21.5 31.995 21.5 34.375 C22.45720444 34.38713028 22.45720444 34.38713028 23.43374634 34.39950562 C30.08510007 34.48566975 36.73615984 34.58517872 43.38720703 34.69238281 C45.86827654 34.73062791 48.34940065 34.76548853 50.83056641 34.796875 C54.40026339 34.84262202 57.96958594 34.90060169 61.5390625 34.9609375 C62.64553131 34.97248871 63.75200012 34.98403992 64.89199829 34.99594116 C77.01689968 35.22745378 77.01689968 35.22745378 81.8125 39.375 C85.50686648 43.75350842 84.85217856 48.55705675 85.12109375 54.08984375 C85.26312729 57.51337816 85.26312729 57.51337816 87.5 60.375 C90.79075996 59.99595792 90.79075996 59.99595792 93.5 58.375 C94.18822745 50.16140028 94.38222669 42.3271766 89.5 35.375 C85.39466034 30.87080032 80.99642677 27.68334081 74.77275085 27.13449097 C73.78901993 27.13893219 72.805289 27.14337341 71.79174805 27.14794922 C70.11057137 27.14817581 70.11057137 27.14817581 68.39543152 27.14840698 C66.5967437 27.16389084 66.5967437 27.16389084 64.76171875 27.1796875 C63.52581497 27.1825174 62.28991119 27.18534729 61.01655579 27.18826294 C57.74335003 27.19754782 54.47034356 27.21549367 51.19720459 27.2376709 C47.85219152 27.25819183 44.50716974 27.26710732 41.16210938 27.27734375 C34.60799526 27.29938205 28.05401392 27.33284339 21.5 27.375 Z M21.5 44.375 C21.5 47.015 21.5 49.655 21.5 52.375 C22.593125 52.684375 23.68625 52.99375 24.8125 53.3125 C27.05407994 53.95837897 29.2869351 54.6373117 31.5 55.375 C33.98256912 60.59346163 33.93026224 66.08230062 34.125 71.75 C34.24875 74.92625 34.3725 78.1025 34.5 81.375 C42.75 81.705 51 82.035 59.5 82.375 C60.180625 79.94125 60.86125 77.5075 61.5625 75 C64.04866863 66.70715849 67.40253308 59.5134853 74.4375 54.125 C76.83850884 52.48120652 76.83850884 52.48120652 76.9375 49.25 C76.77180354 46.25168319 76.77180354 46.25168319 74.5 44.375 C72.15435562 44.08245438 72.15435562 44.08245438 69.40771484 44.14794922 C68.34676605 44.14810028 67.28581726 44.14825134 66.19271851 44.14840698 C64.46923691 44.16389084 64.46923691 44.16389084 62.7109375 44.1796875 C61.53737701 44.1825174 60.36381653 44.18534729 59.1546936 44.18826294 C55.39469338 44.19948645 51.63492861 44.22459508 47.875 44.25 C45.3307326 44.26002699 42.78646148 44.26915332 40.2421875 44.27734375 C33.9947109 44.29943286 27.74737227 44.33293176 21.5 44.375 Z M-25.5 64.375 C-25.5 69.985 -25.5 75.595 -25.5 81.375 C-8.67 81.375 8.16 81.375 25.5 81.375 C25.5 75.765 25.5 70.155 25.5 64.375 C22.25229417 61.09073574 22.25229417 61.09073574 18.07617188 60.98681641 C16.73963562 60.97263168 16.73963562 60.97263168 15.37609863 60.9581604 C13.93696106 60.96726944 13.93696106 60.96726944 12.46875 60.9765625 C10.98755676 60.97225723 10.98755676 60.97225723 9.47644043 60.96786499 C7.3884219 60.96582325 5.3003843 60.97136075 3.21240234 60.98388672 C0.01226117 60.9999385 -3.18661696 60.98404141 -6.38671875 60.96484375 C-8.41406529 60.96682616 -10.44141105 60.97066979 -12.46875 60.9765625 C-13.42817505 60.97048981 -14.3876001 60.96441711 -15.37609863 60.9581604 C-16.2671228 60.96761688 -17.15814697 60.97707336 -18.07617188 60.98681641 C-19.25173645 60.99039658 -19.25173645 60.99039658 -20.4510498 60.99404907 C-22.94958388 61.2586445 -22.94958388 61.2586445 -25.5 64.375 Z M77.5 63.375 C70.92523247 71.99241376 67.18559364 81.40960998 68.5 92.375 C70.03802852 101.25741278 72.53524177 110.1534336 79.5 116.3125 C83.60894566 119.13740014 85.89617137 120.43332104 90.9375 120.25 C97.34273896 118.67678341 101.98723557 114.92705385 105.5 109.375 C110.65065801 98.60701363 112.77723762 86.98224785 108.75 75.4375 C105.95403456 68.31429087 105.95403456 68.31429087 100.5 63.375 C99.819375 64.179375 99.13875 64.98375 98.4375 65.8125 C94.88091948 68.91504896 93.18933855 69.375 88.5 69.375 C83.97326492 68.27457821 80.66320467 66.85061994 77.5 63.375 Z M-63.82275391 99.53291321 C-64.37624512 100.47080185 -64.92973633 101.40869049 -65.5 102.375 C-66.8110396 104.01803924 -68.14120305 105.64623143 -69.5 107.25 C-70.44166016 108.45849609 -70.44166016 108.45849609 -71.40234375 109.69140625 C-72.99318401 111.72661529 -74.60849952 113.72464207 -76.25390625 115.71484375 C-77.19054481 116.87203931 -78.12674737 118.02958792 -79.0625 119.1875 C-79.51689453 119.72681152 -79.97128906 120.26612305 -80.43945312 120.82177734 C-82.39898235 123.28341683 -83.52398766 124.74268521 -83.40234375 127.94921875 C-82.95568359 129.14998047 -82.95568359 129.14998047 -82.5 130.375 C-82.2525 131.23609375 -82.005 132.0971875 -81.75 132.984375 C-80.14716636 136.04979434 -78.49836475 136.93841983 -75.5 138.625 C-66.42711356 144.09960818 -59.20711329 151.22430272 -52.5 159.375 C-51.6028125 159.04886719 -50.705625 158.72273438 -49.78125 158.38671875 C-28.41681481 150.81205536 -6.64110425 148.53724983 15.5 154.375 C16.5 155.375 16.5 155.375 16.73828125 157.66796875 C16.45705589 160.86287324 15.59724886 162.14581478 13.6875 164.6875 C6.85412783 173.81553542 6.65811538 183.67926769 5.77148438 194.66992188 C4.81828244 205.04233825 3.05816164 215.54747963 -2.9375 224.3125 C-3.49308594 225.14652344 -4.04867187 225.98054687 -4.62109375 226.83984375 C-6.80596081 229.78782446 -9.14240898 232.56323631 -11.5 235.375 C-3.86461689 235.47624722 3.77059377 235.54640114 11.40649414 235.59472656 C14.00519276 235.61486774 16.60384593 235.64218228 19.20239258 235.67675781 C22.93321942 235.72516388 26.6634482 235.74794401 30.39453125 235.765625 C32.14308159 235.79659271 32.14308159 235.79659271 33.92695618 235.82818604 C35.5482972 235.82863922 35.5482972 235.82863922 37.20239258 235.82910156 C38.15503494 235.83798401 39.10767731 235.84686646 40.08918762 235.85601807 C42.6065236 235.58671478 42.6065236 235.58671478 44.2052002 233.65937805 C45.56124873 231.26694063 46.57361936 228.95543588 47.5144043 226.37084961 C48.06806168 224.86552422 48.06806168 224.86552422 48.63290405 223.32978821 C49.0260379 222.23998154 49.41917175 221.15017487 49.82421875 220.02734375 C50.24329498 218.88295334 50.66237122 217.73856293 51.09414673 216.55949402 C52.22969126 213.45546426 53.35940741 210.34943189 54.48654556 207.24234772 C55.65657951 204.02104371 56.83356697 200.80228529 58.01049805 197.58349609 C58.48579408 196.28350831 58.9610901 194.98352051 59.43638611 193.68353271 C59.67224867 193.03848534 59.90811123 192.39343796 60.15112114 191.72884369 C60.8693303 189.76366809 61.58660995 187.79815521 62.3037262 185.83258057 C65.31383194 177.58663657 68.36111134 169.35527472 71.4453125 161.13671875 C71.82176407 160.13243332 72.19821564 159.12814789 72.58607483 158.09342957 C74.00741983 154.30343103 75.42945577 150.51372664 76.86019897 146.7272644 C77.82372795 144.17649105 78.78152696 141.62363294 79.73828125 139.0703125 C80.02160309 138.32613571 80.30492493 137.58195892 80.59683228 136.81523132 C81.70087229 133.85701415 82.5 131.56068409 82.5 128.375 C80.46355016 126.95593809 80.46355016 126.95593809 77.875 125.6875 C68.58280885 120.32712457 64.92139908 112.30096006 61.5 102.375 C61.06948372 100.67507573 60.66915893 98.96693949 60.3125 97.25 C59.86986468 93.38023229 59.86986468 93.38023229 57.5 91.375 C55.44128307 91.04609079 55.44128307 91.04609079 53.03686523 91.06047058 C52.0977681 91.04182449 51.15867096 91.02317841 50.19111633 91.00396729 C49.15738388 90.99387634 48.12365143 90.9837854 47.05859375 90.97338867 C45.97221115 90.9554274 44.88582855 90.93746613 43.76652527 90.91896057 C40.15688625 90.86406076 36.54740093 90.82621988 32.9375 90.79296875 C31.70513611 90.78107325 30.47277222 90.76917774 29.20306396 90.75692177 C23.34900988 90.70367376 17.49501987 90.66052686 11.64080048 90.63046759 C4.89838839 90.59512532 -1.841716 90.51633078 -8.58322048 90.40096492 C-14.43300773 90.30429314 -20.28202804 90.26853784 -26.13253784 90.25347328 C-28.61411107 90.23821931 -31.09564456 90.20421053 -33.57669067 90.15083885 C-51.06652561 89.18681832 -51.06652561 89.18681832 -63.82275391 99.53291321 Z M-119.5 131.375 C-119.41878906 132.34953125 -119.33757812 133.3240625 -119.25390625 134.328125 C-118.49625425 148.33371879 -121.98407612 161.00213353 -125.74389648 174.40917969 C-129.11281888 187.62379681 -128.43622413 200.65258895 -122.21484375 212.90625 C-115.93836703 223.11645169 -106.88318903 229.37389906 -95.5703125 232.9921875 C-88.25903159 234.34408473 -80.46058299 233.96498437 -73.5 231.375 C-74.00173201 229.13811144 -74.61779305 227.06677484 -75.4375 224.921875 C-77.68189263 219.01384147 -78.71068975 213.80159852 -78.8125 207.5 C-79.04029549 199.2696499 -81.24143125 191.87753125 -86.5 185.375 C-90.59547465 183.7321296 -94.29376111 183.11066196 -98.6875 183.1875 C-99.50605469 183.19394531 -100.32460937 183.20039063 -101.16796875 183.20703125 C-103.40120288 183.36788396 -105.33756458 183.82456189 -107.5 184.375 C-109.83300933 184.41388349 -112.16709801 184.4198635 -114.5 184.375 C-114.83 182.065 -115.16 179.755 -115.5 177.375 C-108.83042073 175.73493952 -102.34817102 174.86141215 -95.5 174.375 C-98.05872929 169.55344888 -101.61255714 166.21610345 -105.6484375 162.65625 C-109.39711833 159.12926535 -110.23510359 156.45848828 -110.5 151.375 C-107.24423513 150.96492275 -104.61966307 150.66730026 -101.75488281 152.47802734 C-99.94227994 154.09465894 -98.27894035 155.78378219 -96.625 157.5625 C-96.01930176 158.19019287 -95.41360352 158.81788574 -94.78955078 159.46459961 C-90.0751177 164.46921914 -86.10150778 169.77384111 -82.3671875 175.53515625 C-80.55459181 178.2919702 -78.59943421 180.83235191 -76.5 183.375 C-75.91992188 182.49457031 -75.33984375 181.61414063 -74.7421875 180.70703125 C-73.95359856 179.5335358 -73.16450914 178.36037656 -72.375 177.1875 C-71.99601562 176.60935547 -71.61703125 176.03121094 -71.2265625 175.43554688 C-68.43228741 171.31399111 -65.44815883 168.4133657 -61.5 165.375 C-65.49440224 153.75676405 -79.04788391 145.53758665 -89.67822266 140.30224609 C-104.06675252 133.59748668 -104.06675252 133.59748668 -119.5 131.375 Z M-60.890625 176.57421875 C-68.64499569 185.25083256 -71.13510707 195.50978513 -70.859375 207.0078125 C-70.25592969 212.6618327 -68.92517643 218.21643074 -66.5 223.375 C-65.51 223.705 -64.52 224.035 -63.5 224.375 C-62.45884577 222.67897484 -61.44281622 220.96751063 -60.4375 219.25 C-59.86902344 218.29867187 -59.30054687 217.34734375 -58.71484375 216.3671875 C-57.26507832 212.79638261 -57.61784121 211.07119603 -58.5 207.375 C-59.10432773 200.169554 -57.92426839 194.15717942 -55.5 187.375 C-53.52 187.375 -51.54 187.375 -49.5 187.375 C-48.375 193.125 -48.375 193.125 -49.5 195.375 C-49.539992 197.37460012 -49.54346799 199.37547242 -49.5 201.375 C-45.76736931 198.26447443 -42.2313216 195.13842601 -38.875 191.625 C-35.39754227 188.12037463 -31.72929466 184.95187523 -27.875 181.875 C-27.33665527 181.42930664 -26.79831055 180.98361328 -26.24365234 180.52441406 C-22.56444228 177.65717536 -20.13408988 176.87401731 -15.5 177.375 C-15.005 180.345 -15.005 180.345 -14.5 183.375 C-15.28246094 184.00148437 -16.06492188 184.62796875 -16.87109375 185.2734375 C-17.88300781 186.09070313 -18.89492187 186.90796875 -19.9375 187.75 C-20.94683594 188.56210938 -21.95617187 189.37421875 -22.99609375 190.2109375 C-25.53528755 192.12534341 -25.53528755 192.12534341 -26.5 194.375 C-25.57767578 194.95507812 -25.57767578 194.95507812 -24.63671875 195.546875 C-23.82847656 196.06765625 -23.02023438 196.5884375 -22.1875 197.125 C-20.98673828 197.89070313 -20.98673828 197.89070313 -19.76171875 198.671875 C-17.46440584 200.4018032 -16.01494644 201.94043752 -14.5 204.375 C-14.25 207.0625 -14.25 207.0625 -14.5 209.375 C-15.5 210.375 -15.5 210.375 -18.25 210.8125 C-21.82965179 210.3306238 -22.12318144 210.08336357 -24.25 207.4375 C-24.9925 206.426875 -25.735 205.41625 -26.5 204.375 C-30.16902474 202.54048763 -33.53426225 202.34638677 -37.5 203.375 C-46.08937675 209.96212339 -53.44193498 222.10973651 -56.5 232.375 C-46.77587045 236.33057812 -36.79083374 236.88713682 -26.77734375 233.4140625 C-16.5218322 228.73487541 -9.46382399 219.74413378 -5.5 209.375 C-3.05866722 200.93048109 -2.57385123 192.13093886 -1.8203125 183.41210938 C-1.16883465 176.83440399 -0.07907137 171.36474485 2.77978516 165.37866211 C3.79049618 163.21567337 3.79049618 163.21567337 2.5 160.375 C-20.16252604 159.75820352 -43.40778616 159.7264403 -60.890625 176.57421875 Z " fill="#000000" transform="translate(136.5,11.625)"/>
<path d="M0 0 C0.66248245 -0.00335861 1.3249649 -0.00671722 2.00752258 -0.01017761 C4.18683778 -0.01963802 6.36607573 -0.02162823 8.54541016 -0.02270508 C10.06849193 -0.02592103 11.5915734 -0.02928536 13.11465454 -0.03279114 C16.30381994 -0.0387701 19.4929583 -0.0406323 22.68212891 -0.04003906 C26.75621297 -0.0399375 30.83012252 -0.05358886 34.90416527 -0.07081127 C38.04927355 -0.0819634 41.19434007 -0.08395729 44.33946609 -0.08342934 C45.84087348 -0.08460464 47.34228211 -0.08900104 48.84366989 -0.0967617 C50.94928756 -0.10662696 53.05453178 -0.10365817 55.16015625 -0.09765625 C56.35530853 -0.09908127 57.55046082 -0.10050629 58.78182983 -0.10197449 C64.06940704 0.27942198 68.00897669 1.12745188 72.08447266 4.58276367 C76.35332231 9.73049413 75.42937566 15.58096299 75.45947266 21.95776367 C75.48009766 23.03864258 75.50072266 24.11952148 75.52197266 25.2331543 C75.5730999 35.64393898 75.5730999 35.64393898 72.20947266 40.14526367 C67.69867053 43.77599075 64.21558591 44.7293604 58.55517578 44.6628418 C57.81291245 44.66985107 57.07064911 44.67686035 56.30589294 44.68408203 C53.86711543 44.70160011 51.42951072 44.69006225 48.99072266 44.67651367 C47.28731057 44.67921039 45.5839 44.68309431 43.88049316 44.68811035 C40.31633805 44.69399699 36.75258484 44.68546963 33.18847656 44.66674805 C28.62867489 44.6439587 24.06981506 44.65708631 19.51004791 44.6810379 C15.99433342 44.69551864 12.47884082 44.69087953 8.96311951 44.68052673 C7.28226102 44.67786572 5.60138214 44.68110715 3.92054749 44.69044495 C1.56774839 44.70064853 -0.78354315 44.68505849 -3.13623047 44.6628418 C-4.16974388 44.67498718 -4.16974388 44.67498718 -5.22413635 44.68737793 C-10.16969442 44.60122307 -12.97146037 43.22113027 -16.79052734 40.14526367 C-20.80120343 34.71855607 -20.2710097 28.61606139 -20.22802734 22.14526367 C-20.24800781 21.07791992 -20.26798828 20.01057617 -20.28857422 18.91088867 C-20.28469395 12.67142044 -19.98297132 8.8774066 -15.79052734 4.14526367 C-11.19049941 -0.15798827 -6.05471586 0.01933655 0 0 Z M-9.79052734 12.14526367 C-10.24080413 15.62580316 -10.11460706 19.13892559 -10.10302734 22.64526367 C-10.11914062 23.62108398 -10.13525391 24.5969043 -10.15185547 25.60229492 C-10.1525 26.53428711 -10.15314453 27.4662793 -10.15380859 28.42651367 C-10.15678955 29.2830957 -10.15977051 30.13967773 -10.1628418 31.0222168 C-10.03997803 31.72282227 -9.91711426 32.42342773 -9.79052734 33.14526367 C-6.16372659 35.56313084 -4.48064756 35.39837597 -0.16357422 35.40405273 C0.50504135 35.40755737 1.17365692 35.41106201 1.86253357 35.41467285 C4.07203563 35.42347332 6.28121735 35.41764713 8.49072266 35.41088867 C10.02624574 35.41223581 11.56176841 35.41417675 13.09729004 35.41668701 C16.31522686 35.41963598 19.53305265 35.41534796 22.75097656 35.40600586 C26.87709644 35.39461139 31.00295614 35.40117208 35.12906647 35.41315079 C38.29976362 35.42037554 41.47039902 35.41807864 44.64109802 35.4128952 C46.16255219 35.41156041 47.68401196 35.41320049 49.20545959 35.41785431 C51.33129746 35.4229297 53.45671313 35.41519544 55.58251953 35.40405273 C56.79258667 35.40246155 58.00265381 35.40087036 59.24938965 35.39923096 C62.39620051 35.36855976 62.39620051 35.36855976 65.20947266 33.14526367 C65.65776457 30.95533853 65.65776457 30.95533853 65.57275391 28.42651367 C65.57210937 27.49452148 65.57146484 26.5625293 65.57080078 25.60229492 C65.54663086 24.13856445 65.54663086 24.13856445 65.52197266 22.64526367 C65.52680664 21.1815332 65.52680664 21.1815332 65.53173828 19.68823242 C65.82468094 14.37646005 65.82468094 14.37646005 63.20947266 10.14526367 C60.14654073 9.837226 60.14654073 9.837226 56.49658203 9.88647461 C55.80699905 9.88296997 55.11741608 9.87946533 54.40693665 9.87585449 C52.1222636 9.86703538 49.83789897 9.8728868 47.55322266 9.87963867 C45.96903422 9.87829207 44.38484619 9.87635158 42.80065918 9.87384033 C39.47839427 9.87088883 36.15623681 9.87518749 32.83398438 9.88452148 C28.56985675 9.89591609 24.30598087 9.88935675 20.04186249 9.87737656 C16.7699798 9.87015862 13.49815705 9.87244556 10.22627258 9.87763214 C8.65375234 9.87896883 7.08122671 9.87732026 5.50871277 9.87267303 C3.31311573 9.86760882 1.11792962 9.87531617 -1.07763672 9.88647461 C-2.32847046 9.8880658 -3.5793042 9.88965698 -4.86804199 9.89129639 C-7.91444566 9.8403592 -7.91444566 9.8403592 -9.79052734 12.14526367 Z " fill="#000000" transform="translate(108.79052734375,109.854736328125)"/>
<path d="M0 0 C4.52460109 3.44731512 8.80303354 7.53410061 10.625 13 C10.74132729 14.51766539 10.79996239 16.0404346 10.8125 17.5625 C10.82667969 18.34753906 10.84085938 19.13257812 10.85546875 19.94140625 C10.625 22 10.625 22 8.625 24 C6.125 24.25 6.125 24.25 3.625 24 C0.98137129 21.35637129 0.52336719 18.72747933 -0.49609375 15.19140625 C-1.46804195 12.76801541 -2.31484018 11.59038466 -4.375 10 C-8.65026773 9.03461696 -11.09373776 8.5159676 -15.1875 10.0625 C-17.95606966 12.5146617 -19.14352871 14.51083135 -20.375 18 C-20.11009585 22.23846634 -18.79862885 26.01383922 -17.375 30 C-19.0625 32.0625 -19.0625 32.0625 -21.375 34 C-24 34.0625 -24 34.0625 -26.375 33 C-27.6875 30.4375 -27.6875 30.4375 -28.375 28 C-32.93186233 29.96773601 -35.83523574 31.67299422 -38.375 36 C-39.71227968 40.58988897 -40.00840674 44.53831389 -37.8125 48.875 C-35.22028476 52.19835288 -33.26877474 53.49558703 -29.375 55 C-28.83875 54.175 -28.3025 53.35 -27.75 52.5 C-25.375 50 -25.375 50 -22.125 49.6875 C-20.76375 49.8421875 -20.76375 49.8421875 -19.375 50 C-18.1875 52.0625 -18.1875 52.0625 -17.375 55 C-18.36977753 57.33556463 -19.37015117 59.66875071 -20.375 62 C-20.30539441 66.10672965 -20.04580189 68.17772672 -17.4375 71.375 C-13.69435106 74.32414765 -11.12358239 74.32193779 -6.375 74 C-3.48314725 73.29885344 -3.48314725 73.29885344 -1.375 71 C-0.43529643 68.44756193 0.25171124 65.92993276 0.8515625 63.27734375 C1.625 61 1.625 61 4.625 59 C9.16554054 59.54054054 9.16554054 59.54054054 10.625 61 C11.24873852 66.69761151 10.84132803 71.12005402 7.625 76 C2.57803307 81.71104152 -2.0737152 84.66913194 -9.625 85.25 C-16.39859805 84.7984268 -20.65935485 83.17697396 -25.25 78.0625 C-28.80242333 73.77480765 -30.6894392 70.65990556 -30.375 65 C-31.1071875 64.8865625 -31.839375 64.773125 -32.59375 64.65625 C-38.76932634 63.19909154 -43.97230524 59.29157947 -47.4375 54 C-50.66266452 47.38169365 -50.56883893 39.61222245 -48.74609375 32.5703125 C-46.21331579 26.73242966 -41.17302523 21.60933272 -35.30078125 19.12109375 C-33.375 18.5625 -33.375 18.5625 -30.375 18 C-30.2925 16.96875 -30.21 15.9375 -30.125 14.875 C-28.77527908 7.90144189 -24.86058499 4.0850101 -19.375 0 C-13.30683164 -2.02272279 -6.10032057 -1.80750239 0 0 Z " fill="#000000" transform="translate(66.375,1)"/>
<path d="M0 0 C1.2148407 -0.00287018 1.2148407 -0.00287018 2.45422363 -0.00579834 C4.16561189 -0.00715861 5.87701051 -0.00347316 7.58837891 0.00488281 C10.20889448 0.01558475 12.82872452 0.0049824 15.44921875 -0.0078125 C17.11198068 -0.00649088 18.77474218 -0.00392843 20.4375 0 C21.22193481 -0.00404846 22.00636963 -0.00809692 22.8145752 -0.01226807 C26.6438038 0.02076254 28.45690682 0.09106288 31.71875 2.265625 C32.03125 5.265625 32.03125 5.265625 31.71875 8.265625 C29.08689731 10.89747769 27.18006131 10.51434362 23.59729004 10.54351807 C22.76080933 10.5394696 21.92432861 10.53542114 21.0625 10.53125 C20.20442749 10.53316345 19.34635498 10.5350769 18.46228027 10.53704834 C16.64656278 10.53841044 14.83083555 10.53471228 13.01513672 10.52636719 C10.2299215 10.51566791 7.44535132 10.52626153 4.66015625 10.5390625 C2.89843607 10.53774091 1.13671629 10.53517853 -0.625 10.53125 C-1.87972107 10.53732269 -1.87972107 10.53732269 -3.15979004 10.54351807 C-9.05133166 10.49554334 -9.05133166 10.49554334 -11.28125 8.265625 C-11.59375 5.265625 -11.59375 5.265625 -11.28125 2.265625 C-7.47781251 -0.26999999 -4.40619726 -0.02274035 0 0 Z " fill="#000000" transform="translate(75.28125,28.734375)"/>
<path d="M0 0 C0.78532608 -0.00191345 1.57065216 -0.0038269 2.379776 -0.00579834 C4.03988974 -0.00715862 5.70001416 -0.00347309 7.36010742 0.00488281 C9.89721686 0.01557049 12.43361593 0.00498988 14.97070312 -0.0078125 C16.58463698 -0.0064906 18.19857039 -0.00392757 19.8125 0 C20.56989975 -0.00404846 21.3272995 -0.00809692 22.10765076 -0.01226807 C25.87792984 0.02117358 28.77404933 0.15453395 31.97265625 2.265625 C32.09765625 5.140625 32.09765625 5.140625 31.97265625 8.265625 C29.34080356 10.89747769 27.43396756 10.51434362 23.85119629 10.54351807 C23.01471558 10.5394696 22.17823486 10.53542114 21.31640625 10.53125 C20.45833374 10.53316345 19.60026123 10.5350769 18.71618652 10.53704834 C16.90046903 10.53841044 15.0847418 10.53471228 13.26904297 10.52636719 C10.48382775 10.51566791 7.69925757 10.52626153 4.9140625 10.5390625 C3.15234232 10.53774091 1.39062254 10.53517853 -0.37109375 10.53125 C-1.62581482 10.53732269 -1.62581482 10.53732269 -2.90588379 10.54351807 C-8.79742541 10.49554334 -8.79742541 10.49554334 -11.02734375 8.265625 C-11.33984375 5.265625 -11.33984375 5.265625 -11.02734375 2.265625 C-7.28052507 -0.23225412 -4.33741871 -0.02312262 0 0 Z " fill="#000000" transform="translate(75.02734375,45.734375)"/>
</svg>
