<?xml version="1.0" encoding="UTF-8"?>
<svg version="1.1" xmlns="http://www.w3.org/2000/svg" width="204" height="192">
<path d="M0 0 C67.32 0 134.64 0 204 0 C204 63.36 204 126.72 204 192 C136.68 192 69.36 192 0 192 C0 128.64 0 65.28 0 0 Z " fill="#FCFCFC" transform="translate(0,0)"/>
<path d="M0 0 C67.32 0 134.64 0 204 0 C204 63.36 204 126.72 204 192 C136.68 192 69.36 192 0 192 C0 128.64 0 65.28 0 0 Z M33 36 C24.83374816 47.61037397 25.67499028 60.83408321 25.6640625 74.4375 C25.65762432 76.32739357 25.65089523 78.21728618 25.64389038 80.10717773 C25.63196472 84.05422272 25.62820492 88.00118047 25.62939453 91.94824219 C25.629598 96.9849884 25.6022462 102.02117215 25.56785011 107.05778503 C25.5455303 110.95620251 25.54155847 114.85448539 25.54261398 118.75296021 C25.5402676 120.60916083 25.53149884 122.46536571 25.51594925 124.32150269 C25.39264836 140.55201506 27.9417862 150.52269396 39.5 162.5625 C47.55949786 169.88931623 58.32768633 173.30414705 69.02392578 173.29052734 C69.79410538 173.29724457 70.56428497 173.30396179 71.35780334 173.31088257 C73.88704 173.32977333 76.41600981 173.33378282 78.9453125 173.3359375 C80.72020574 173.34237375 82.49509794 173.34910271 84.26998901 173.35610962 C87.9869838 173.36806167 91.70388581 173.37179279 95.42089844 173.37060547 C100.1514187 173.37040289 104.8813341 173.39765092 109.6117115 173.43214989 C113.27864231 173.45454727 116.94543079 173.45843904 120.61242294 173.45738602 C122.35450185 173.45972479 124.09658573 173.46844947 125.83859634 173.48405075 C141.77205959 173.61334308 154.94323264 171.46635049 166.99609375 160.12109375 C175.99300644 150.54373508 178.14097582 140.64555198 178.16113281 127.84667969 C178.16609772 127.07474777 178.17106262 126.30281586 178.17617798 125.50749207 C178.19066337 122.97894364 178.19757854 120.45045793 178.203125 117.921875 C178.20595238 117.05055183 178.20877975 116.17922867 178.21169281 115.28150177 C178.22662982 110.67057498 178.235894 106.05967903 178.24023438 101.44873047 C178.24571181 96.71714225 178.26974033 91.98584281 178.29820633 87.25434494 C178.31694324 83.58747563 178.32204415 79.9206744 178.32357025 76.25376129 C178.32657226 74.51086091 178.33451649 72.76796102 178.34775543 71.02510834 C178.45275123 56.14124514 177.68868526 43.18803499 166.9609375 31.84375 C154.0366781 19.60452201 139.97570559 18.67874181 123.04296875 18.6640625 C121.29095861 18.65762334 119.53894951 18.65089417 117.78694153 18.64389038 C114.12478139 18.63195918 110.46271529 18.62820528 106.80053711 18.62939453 C102.13723351 18.62959754 97.47454049 18.60229499 92.81138134 18.56785011 C89.195107 18.54547476 85.5789772 18.54156022 81.96264076 18.54261398 C80.24485482 18.54027402 78.52706391 18.53154238 76.80934715 18.51594925 C59.41879422 18.37284483 44.54386783 21.95160225 33 36 Z " fill="#FDFDFD" transform="translate(0,0)"/>
<path d="M0 0 C0.76363861 -0.00511093 1.52727722 -0.01022186 2.3140564 -0.01548767 C4.82045492 -0.02930457 7.32657589 -0.02843239 9.83300781 -0.02612305 C11.59027202 -0.03001532 13.34753529 -0.03435107 15.10479736 -0.03910828 C18.7831121 -0.04655427 22.46133084 -0.04629172 26.13964844 -0.04101562 C30.82767255 -0.03523395 35.5152999 -0.05212831 40.20325851 -0.0753603 C43.83235937 -0.09017554 47.4613665 -0.09095861 51.09049225 -0.08785057 C52.81746453 -0.08836023 54.54444256 -0.09353045 56.27138519 -0.10366249 C72.11929297 -0.18521529 86.3262111 1.70511187 98.41113281 13.0871582 C109.64175084 25.21530513 109.34383085 38.96714747 109.30175781 54.6184082 C109.30310781 56.39620008 109.30505111 58.1739916 109.30755615 59.95178223 C109.31049169 63.66344749 109.30626059 67.37501598 109.296875 71.08666992 C109.28548144 75.8205918 109.29204936 80.5542868 109.30401993 85.28820038 C109.31128111 88.95499348 109.30893113 92.62173367 109.30376434 96.28852844 C109.3024396 98.03306608 109.30403388 99.77760867 109.30872345 101.5221405 C109.34348699 118.08509118 108.30628905 130.43972507 96.59082031 142.94262695 C92.5181822 146.66031037 88.12582218 149.19339669 83.03613281 151.2746582 C82.42743851 151.52659943 81.8187442 151.77854065 81.19160461 152.03811646 C72.5915311 155.11074028 63.76441578 154.72867266 54.76269531 154.70825195 C52.98969322 154.71282243 51.21669288 154.71813055 49.44369507 154.72413635 C45.74038464 154.73303378 42.03729025 154.73068336 38.33398438 154.72070312 C33.61799124 154.70922424 28.90274813 154.72942553 24.18685341 154.75862026 C20.52852745 154.77707976 16.87037797 154.7766704 13.21201706 154.77098274 C11.47470422 154.77083068 9.73737853 154.77677826 8.00011063 154.78927422 C-6.97332899 154.88181574 -19.78647031 152.9366578 -31.12011719 142.23950195 C-38.84884099 134.06378107 -43.10875811 125.48341507 -43.125 114.22998047 C-43.1299649 113.41001083 -43.13492981 112.5900412 -43.14004517 111.745224 C-43.15466983 109.02716228 -43.16147223 106.30915909 -43.16699219 103.59106445 C-43.17274704 101.69595845 -43.17850473 99.80085245 -43.18426514 97.90574646 C-43.1947785 93.92528004 -43.20061777 89.94483382 -43.20410156 85.96435547 C-43.20956175 80.89072521 -43.23353502 75.81736666 -43.26207352 70.74382114 C-43.2808087 66.82388056 -43.28591144 62.90400369 -43.28743744 58.98402214 C-43.29044421 57.11552394 -43.29840508 55.24702633 -43.31162262 53.37857246 C-43.40380557 39.33535492 -43.23834355 26.65896805 -33.96386719 15.2746582 C-33.46113281 14.64817383 -32.95839844 14.02168945 -32.44042969 13.3762207 C-24.32096648 4.3061862 -11.93911829 -0.04191855 0 0 Z M-17.96386719 10.2746582 C-18.76679199 10.70911255 -19.5697168 11.14356689 -20.39697266 11.59118652 C-26.80227026 15.23224648 -31.83197162 20.6128084 -34.96386719 27.2746582 C-37.35886768 37.67820245 -37.3228419 48.23229462 -37.37011719 58.84106445 C-37.37577194 59.70780226 -37.3814267 60.57454006 -37.38725281 61.46754265 C-37.41700049 66.04608196 -37.43561301 70.62449886 -37.44433594 75.203125 C-37.45533133 79.89571302 -37.50350619 84.5871482 -37.56027985 89.27937412 C-37.59773442 92.92481188 -37.60795392 96.5699757 -37.61100769 100.21558952 C-37.61700671 101.94458318 -37.63287826 103.6735752 -37.65937805 105.40237617 C-37.81218049 116.12718471 -37.02811821 124.00629444 -30.96386719 133.2746582 C-30.58540649 133.88173111 -30.2069458 134.48880402 -29.8170166 135.11427307 C-24.92363302 141.92498093 -15.78436365 145.96690912 -7.96386719 148.2746582 C-5.20626754 148.66783116 -2.50132437 148.70591939 0.28125 148.69458008 C1.06293549 148.70304962 1.84462097 148.71151917 2.6499939 148.72024536 C5.21116825 148.74347134 7.7717365 148.74464077 10.33300781 148.7434082 C12.131289 148.75052003 13.92956795 148.7582205 15.72784424 148.76647949 C19.49017649 148.77989244 23.25229904 148.78150814 27.01464844 148.77563477 C31.80704903 148.76975103 36.59843224 148.80028992 41.39063644 148.84075165 C45.10387476 148.86676146 48.81687268 148.86949393 52.53018951 148.86585999 C54.29542846 148.86753979 56.0606799 148.87707103 57.82582855 148.89500427 C72.15799687 149.02457076 83.0824268 147.08057009 93.83691406 136.7590332 C99.82870924 129.99032675 103.18688733 123.68212648 103.18139648 114.7265625 C103.1847551 113.94735947 103.18811371 113.16815643 103.1915741 112.36534119 C103.20110801 109.77650372 103.20302932 107.18773092 103.20410156 104.59887695 C103.20731566 102.79441807 103.21067985 100.98995944 103.21418762 99.1855011 C103.22018722 95.39156492 103.22202699 91.59765153 103.22143555 87.80371094 C103.22133461 82.97346547 103.23491185 78.14336928 103.25220776 73.31315899 C103.26341052 69.57846933 103.26535213 65.84381461 103.26482582 62.10910988 C103.26599639 60.33076278 103.27036554 58.5524145 103.27815819 56.77408409 C103.88290327 35.41550689 103.88290327 35.41550689 94.03613281 17.2746582 C90.88863116 14.53311573 87.711571 12.25260486 84.03613281 10.2746582 C83.43557571 9.94146576 82.83501862 9.60827332 82.21626282 9.26498413 C73.61516084 5.14371588 64.79186475 5.6939509 55.47363281 5.7434082 C53.6734191 5.74070832 51.87320681 5.73682179 50.07299805 5.73181152 C46.31414806 5.72593978 42.55568028 5.73440395 38.796875 5.75317383 C34.00218779 5.77596207 29.20839649 5.76282644 24.41374207 5.73888397 C20.70057544 5.72436281 16.98761783 5.72906079 13.27444458 5.73939514 C11.50757743 5.74204501 9.74069069 5.7388546 7.97384644 5.72947693 C-5.47121061 5.64763807 -5.47121061 5.64763807 -17.96386719 10.2746582 Z " fill="#0D0D0D" transform="translate(68.9638671875,18.725341796875)"/>
<path d="M0 0 C6.19601793 4.33272269 9.78003667 9.21458372 13 16 C13.495 16.99 13.495 16.99 14 18 C15.13891947 27.65919041 13.52006975 34.97294761 8 43 C2.75333394 49.09361216 -3.88640818 53.33687379 -11.921875 54.37890625 C-20.94716501 54.73396208 -27.25719025 52.42240334 -34.25 46.8125 C-39.8502909 41.62580344 -43.50532932 35.14944071 -44.23828125 27.51953125 C-44.51229749 17.52514951 -41.5790744 11.00071839 -34.79296875 3.72265625 C-25.18420662 -5.50929168 -11.32353832 -7.14058946 0 0 Z " fill="#FBFBFB" transform="translate(117,71)"/>
<path d="M0 0 C7.23479713 6.05703946 12.50759952 14.35764235 13.50390625 23.81640625 C13.90186422 34.68964508 11.18907515 43.4401535 4.16796875 51.80859375 C-2.87462118 58.93452794 -11.36759718 62.89034366 -21.375 63.125 C-30.61908259 62.81643535 -38.75726918 60.36119466 -45.76171875 54.05859375 C-53.84455536 45.37962602 -57.27061615 36.04099875 -57.15234375 24.33203125 C-56.26096864 15.10066368 -51.78984145 6.87034684 -44.8125 0.8125 C-30.79436456 -9.44914163 -14.4106313 -10.37951668 0 0 Z M-44.8125 9.8125 C-49.8662545 17.34924058 -51.64511129 23.7489314 -50.8125 32.8125 C-48.83489185 40.93737202 -44.44914689 47.71111556 -37.46484375 52.3828125 C-29.72139792 56.78965159 -22.15018546 58.45121618 -13.3046875 56.1640625 C-4.03484168 52.38506612 1.97992653 46.12190762 6.11328125 37.0625 C8.56535074 29.64387522 8.3647309 22.56490797 5.125 15.4375 C0.13137884 6.79685215 -6.4412958 1.93623473 -15.8125 -1.1875 C-27.82633857 -2.2878666 -36.69555793 0.74062356 -44.8125 9.8125 Z " fill="#090909" transform="translate(123.8125,68.1875)"/>
<path d="M0 0 C0.99 0.66 1.98 1.32 3 2 C3.33427818 5.00850363 3.5325554 7.10053172 3 10 C1.3125 12.0625 1.3125 12.0625 -1 13 C-3.85343764 12.86080792 -5.46462886 12.36922147 -7.8125 10.75 C-9.4809522 8.29122834 -9.49763411 6.91471407 -9 4 C-6.35446476 0.3746369 -4.46400768 -0.68677041 0 0 Z " fill="#0C0C0C" transform="translate(146,48)"/>
<path d="M0 0 C0.66 0.33 1.32 0.66 2 1 C-1.3 4.3 -4.6 7.6 -8 11 C-8 7.0234755 -6.61988497 5.9109833 -4 3 C-1.75 1.1875 -1.75 1.1875 0 0 Z " fill="#E0E0E0" transform="translate(47,31)"/>
</svg>
