<?xml version="1.0" encoding="UTF-8"?>
<svg version="1.1" xmlns="http://www.w3.org/2000/svg" width="512" height="512">
<path d="M0 0 C6.79314388 4.69998234 11.61040825 10.66020266 13.75390625 18.6796875 C14.04497017 22.14604105 14.03238464 25.60019883 14.02133179 29.07717896 C14.0258629 30.12331167 14.03039401 31.16944439 14.03506243 32.24727809 C14.04772133 35.75229933 14.04608506 39.25716547 14.04443359 42.76220703 C14.050418 45.27561137 14.05722335 47.78901387 14.06478882 50.30241394 C14.08063082 56.42176255 14.08689775 62.54105437 14.08801357 68.66042157 C14.08896501 73.63777475 14.09308008 78.61511527 14.09941483 83.59246445 C14.11702538 97.71797884 14.12625431 111.84346287 14.12475388 125.96898831 C14.12467397 126.73010108 14.12459405 127.49121384 14.12451172 128.27539062 C14.12442996 129.03743789 14.1243482 129.79948515 14.12426396 130.58462475 C14.12345173 142.92402132 14.14257395 155.26329563 14.17078845 167.60265686 C14.19955986 180.28617263 14.21332632 192.96962888 14.2116009 205.6531781 C14.21093833 212.76849332 14.21637162 219.88368048 14.237957 226.99896622 C14.25814103 233.69506751 14.25745169 240.39085431 14.24292374 247.08698463 C14.24083655 249.53949059 14.24553109 251.99201351 14.25764465 254.44449043 C14.34471593 273.29980936 12.72571685 288.28739795 -0.4453125 302.921875 C-3.48798333 305.89194414 -6.79916065 308.51073406 -10.12109375 311.16015625 C-13.56967719 313.91527454 -16.90658368 316.79409584 -20.24609375 319.6796875 C-25.25859726 323.99975885 -30.33149494 328.23068142 -35.46875 332.40234375 C-40.14228169 336.23450827 -44.78167195 340.12198315 -49.31297302 344.121521 C-51.24609375 345.6796875 -51.24609375 345.6796875 -53.9566803 347.39068604 C-58.41338426 350.42581182 -61.69301033 352.76341927 -63.22689819 358.07788086 C-63.54786072 362.17948379 -63.53670685 366.1521667 -63.3984375 370.2578125 C-63.39018626 371.75752809 -63.38739754 373.25728266 -63.38978577 374.75701904 C-63.3841504 378.68240653 -63.31653643 382.60405691 -63.23181152 386.52844238 C-63.10545966 392.82076518 -63.06959223 399.11396976 -63.04272652 405.40737152 C-63.02373963 407.59795515 -62.97531302 409.78637964 -62.92259216 411.97637939 C-62.90592493 413.32180929 -62.88994286 414.6672479 -62.87475586 416.01269531 C-62.85046005 417.18245911 -62.82616425 418.3522229 -62.8011322 419.55743408 C-63.34211974 423.35349289 -64.59116573 424.96915254 -67.24609375 427.6796875 C-70.54286761 429.32807443 -74.21375889 428.85428669 -77.83911133 428.87255859 C-78.72870041 428.88073608 -79.61828949 428.88891357 -80.53483582 428.89733887 C-83.48675864 428.92220686 -86.43863336 428.938712 -89.390625 428.953125 C-90.39754583 428.95844868 -91.40446667 428.96377235 -92.44190025 428.96925735 C-97.77091079 428.99599436 -103.09989785 429.01536797 -108.42895508 429.02978516 C-113.93728786 429.04643922 -119.44502307 429.09122198 -124.95312977 429.1421566 C-129.18504028 429.17578754 -133.41680819 429.18735802 -137.64883995 429.19301224 C-139.67945615 429.19973562 -141.71006261 429.21498579 -143.74054909 429.23890305 C-146.58249459 429.27046983 -149.42281829 429.2706042 -152.26489258 429.26318359 C-153.10404205 429.27958893 -153.94319153 429.29599426 -154.80776978 429.31289673 C-158.91039868 429.26903567 -160.79747594 428.98422421 -164.27612305 426.62280273 C-166.70685503 422.99131506 -166.89221828 420.22732159 -166.74682617 416.00634766 C-166.74124695 415.24942627 -166.73566772 414.49250488 -166.72991943 413.71264648 C-166.71538623 412.07291569 -166.68976835 410.43325361 -166.65428734 408.79384232 C-166.60086037 406.18445793 -166.58316598 403.57702979 -166.57551575 400.96713257 C-166.54854429 393.54939086 -166.46743304 386.13297869 -166.33911133 378.71630859 C-166.26298741 374.17137759 -166.23690255 369.62824718 -166.23983192 365.08271408 C-166.23110932 363.36443521 -166.2038493 361.64613228 -166.15642357 359.92848587 C-165.8403736 348.31683066 -167.60612197 341.09291766 -174.81367493 331.84359741 C-186.61796979 316.48944657 -187.43329214 296.7317184 -187.43139648 278.20361328 C-187.43358288 275.8165502 -187.4517978 273.42995054 -187.47070312 271.04296875 C-187.53730832 253.39304998 -185.36281008 237.3598511 -173.24609375 223.6796875 C-172.67761719 222.99261719 -172.10914063 222.30554688 -171.5234375 221.59765625 C-168.81208664 218.36750477 -166.0410995 215.4246971 -162.8046875 212.71875 C-156.80789723 207.53013575 -151.3149608 201.81756972 -145.74609375 196.1796875 C-143.57206602 193.97871696 -141.39450309 191.78132962 -139.21484375 189.5859375 C-138.73438599 189.0971814 -138.25392822 188.60842529 -137.75891113 188.1048584 C-132.92185298 183.23409825 -127.94788804 178.55175556 -122.29571533 174.63537598 C-111.93019661 167.43990878 -101.47740129 159.12350642 -98.89904785 146.14648438 C-96.84123871 131.66821325 -97.65819627 116.83818073 -98.24078369 102.27722168 C-98.50138421 95.08269438 -98.58838869 87.88429461 -98.69863701 80.68618774 C-98.78703283 75.09316298 -98.9008449 69.50492329 -99.09719849 63.91455078 C-99.12813095 62.88929291 -99.15906342 61.86403503 -99.19093323 60.80770874 C-99.24916645 58.91193415 -99.31947809 57.01646951 -99.40510559 55.12173462 C-99.67650178 45.32795271 -96.54185801 37.17985884 -90.24609375 29.6796875 C-80.71165949 20.56900587 -72.60012031 19.25021144 -59.87890625 19.4765625 C-56.24609375 19.6796875 -56.24609375 19.6796875 -54.24609375 20.6796875 C-54.09914063 20.1228125 -53.9521875 19.5659375 -53.80078125 18.9921875 C-51.13838684 9.93392604 -46.68257237 3.8719635 -38.58203125 -1.06640625 C-26.14477844 -7.74259045 -12.1468085 -7.14021091 0 0 Z M-32.39000797 22.41318321 C-34.48591367 26.10174386 -34.73088664 28.11396347 -34.69346619 32.3187561 C-34.69335606 32.96061714 -34.69324593 33.60247817 -34.69313246 34.26378953 C-34.68803841 36.40119924 -34.6543932 38.53717861 -34.62084961 40.67431641 C-34.61152916 42.21235181 -34.60405444 43.75039934 -34.59828186 45.28845215 C-34.58227403 48.59524657 -34.55393896 51.90162363 -34.51618767 55.20824051 C-34.45717267 60.44593996 -34.43000903 65.68351082 -34.40785217 70.92147827 C-34.34786488 83.93543458 -34.24610245 96.94902796 -34.13592529 109.96264648 C-34.05080926 120.07087772 -33.97738462 130.17891343 -33.93833262 140.28744066 C-33.91695286 145.48457543 -33.87200325 150.68078866 -33.80872524 155.87757421 C-33.77437555 159.12529003 -33.76126608 162.3728494 -33.75372887 165.62072754 C-33.74602945 167.11544289 -33.72979103 168.6101453 -33.70389938 170.10465622 C-33.49836638 182.39828836 -35.60842683 192.60927376 -44.33203125 201.72265625 C-44.96367187 202.36847656 -45.5953125 203.01429688 -46.24609375 203.6796875 C-47.54020215 205.15671839 -48.83165642 206.63607705 -50.12109375 208.1171875 C-55.20884474 213.77511747 -60.61736858 219.10620322 -66.04248047 224.43920898 C-69.37887651 227.73521748 -72.62009395 231.05002246 -75.67578125 234.609375 C-80.53604366 240.25681422 -85.91208354 245.39044838 -91.21875 250.61328125 C-95.57827132 254.93081681 -99.78505127 259.30187882 -103.76806641 263.97070312 C-109.22507985 270.28043126 -109.22507985 270.28043126 -113.48046875 271.12109375 C-117.42237447 271.32076545 -119.53470835 271.21322655 -122.74609375 268.8046875 C-125.45378307 264.96879429 -125.51287303 262.63326224 -124.94140625 258.046875 C-123.91968289 254.56842356 -121.96660052 252.84785445 -119.27148438 250.51879883 C-117.36957112 248.7918084 -115.74951739 247.02200586 -114.09765625 245.05859375 C-109.13403371 239.31259655 -103.68159321 234.06881256 -98.2734375 228.74609375 C-94.01136995 224.5250734 -89.93950816 220.24000359 -86.03320312 215.68945312 C-81.89553211 211.036269 -77.35601143 206.75420388 -72.91796875 202.390625 C-60.23198762 191.12987797 -60.23198762 191.12987797 -53.93359375 176.4921875 C-54.00726298 171.40082505 -55.20340945 168.76329012 -58.24609375 164.6796875 C-62.18468443 161.19907248 -65.79107446 159.86962168 -70.94921875 159.5234375 C-77.58915943 159.97513414 -82.04374195 164.08505124 -86.38916016 168.75976562 C-88.08337502 170.51144925 -89.81826749 172.06434855 -91.68359375 173.62890625 C-97.67778312 178.82557066 -103.17481505 184.53936375 -108.74609375 190.1796875 C-120.84757151 202.43113931 -120.84757151 202.43113931 -125.078125 206.03515625 C-131.13466582 211.20552786 -136.73932608 216.87330155 -142.39233398 222.47583008 C-143.75321772 223.82011172 -145.11945063 225.15899958 -146.4909668 226.49243164 C-157.36056156 236.6919942 -157.36056156 236.6919942 -164.24609375 249.6796875 C-164.59788696 250.67838867 -164.59788696 250.67838867 -164.95678711 251.69726562 C-166.93669176 258.64383655 -166.54716449 266.06208317 -166.50683594 273.22583008 C-166.49616572 275.47700246 -166.50675042 277.72736826 -166.51953125 279.97851562 C-166.53937637 299.19864816 -162.41614633 313.83082375 -151.34814453 329.58837891 C-150.57833252 330.68738525 -150.57833252 330.68738525 -149.79296875 331.80859375 C-149.32729492 332.45900635 -148.86162109 333.10941895 -148.38183594 333.77954102 C-145.97422635 337.80757744 -146.09969682 341.85476157 -146.04077148 346.46777344 C-146.03087189 347.14135391 -146.02097229 347.81493439 -146.01077271 348.50892639 C-145.97927717 350.72726979 -145.95444778 352.94563457 -145.9296875 355.1640625 C-145.90910764 356.70534816 -145.8881109 358.2466283 -145.86671448 359.78790283 C-145.81160035 363.83859788 -145.76214421 367.88934297 -145.71386719 371.94012451 C-145.65472703 376.80356807 -145.58855786 381.66692047 -145.5235672 386.5302887 C-145.42569182 393.91336581 -145.33674414 401.29650221 -145.24609375 408.6796875 C-125.11609375 408.6796875 -104.98609375 408.6796875 -84.24609375 408.6796875 C-84.20871094 404.26207031 -84.17132813 399.84445312 -84.1328125 395.29296875 C-84.09469186 391.76503312 -84.05361916 388.23715928 -84.01055145 384.70928192 C-83.96593472 380.98825644 -83.92649058 377.26734242 -83.8996582 373.54614258 C-83.87360097 369.96032077 -83.83318232 366.37491931 -83.78290749 362.78935814 C-83.76625496 361.42312038 -83.7547306 360.05680994 -83.74847984 358.690485 C-83.73882214 356.77311252 -83.70904795 354.85587361 -83.6784668 352.9387207 C-83.66736374 351.84840042 -83.65626068 350.75808014 -83.64482117 349.63471985 C-83.01923534 344.99840371 -80.81377236 341.8434905 -77.27734375 338.8828125 C-76.71200928 338.40384521 -76.1466748 337.92487793 -75.56420898 337.43139648 C-74.96423096 336.93583252 -74.36425293 336.44026855 -73.74609375 335.9296875 C-73.120979 335.40383057 -72.49586426 334.87797363 -71.85180664 334.33618164 C-67.2781612 330.49982581 -62.65749696 326.72007806 -58.0234375 322.95703125 C-54.90213008 320.39764696 -51.82159345 317.79374959 -48.74609375 315.1796875 C-44.77705832 311.80685161 -40.78592354 308.46792105 -36.74609375 305.1796875 C-34.91192438 303.6807099 -33.07863742 302.18065213 -31.24609375 300.6796875 C-30.70919922 300.24124512 -30.17230469 299.80280273 -29.61914062 299.35107422 C-14.50500914 287.47423268 -14.50500914 287.47423268 -6.87272823 270.4019416 C-6.31161553 264.38628512 -6.10741728 258.43963679 -6.13015747 252.39945984 C-6.12970942 250.92185636 -6.12970942 250.92185636 -6.12925231 249.41440231 C-6.12960584 246.14042113 -6.13725311 242.86650065 -6.14501953 239.5925293 C-6.14698019 237.23466519 -6.14856232 234.87680075 -6.14979553 232.51893616 C-6.15593358 224.80557203 -6.17315968 217.09224978 -6.19140625 209.37890625 C-6.19720023 206.71991291 -6.20296666 204.0609195 -6.2087059 201.40192604 C-6.23315724 190.34830065 -6.26070548 179.29468802 -6.29605293 168.24109173 C-6.30515223 165.38102416 -6.31422266 162.5209565 -6.32324219 159.66088867 C-6.32660903 158.59471721 -6.32660903 158.59471721 -6.3300439 157.50700692 C-6.36591338 145.96826499 -6.38114373 134.42959036 -6.38799967 122.89079847 C-6.39539399 111.03089874 -6.42151364 99.17115563 -6.46594799 87.31133586 C-6.49040272 80.65741911 -6.50600773 74.00367646 -6.50168228 67.34970665 C-6.49805461 61.09913916 -6.5178561 54.84908731 -6.55586052 48.59863853 C-6.56572022 46.302857 -6.56702404 44.00702072 -6.55923271 41.71123123 C-6.54990169 38.58188232 -6.57111428 35.45419078 -6.60012817 32.32499695 C-6.59013703 31.41255476 -6.5801459 30.50011258 -6.56985199 29.56002063 C-6.64500754 25.06949354 -6.77172517 23.27009492 -9.67318535 19.65888691 C-13.9614562 16.36015185 -16.61552495 15.20043267 -22.22265625 15.3671875 C-26.88618657 16.08742384 -29.58291585 18.83413411 -32.39000797 22.41318321 Z M-75.24609375 44.6796875 C-78.43284925 49.72609827 -78.66343688 53.76109072 -78.58666992 59.53076172 C-78.587108 60.39970566 -78.58754608 61.2686496 -78.58799744 62.16392517 C-78.58591622 65.02097455 -78.56261674 67.8774288 -78.5390625 70.734375 C-78.53346417 72.72119832 -78.52919519 74.70802579 -78.52619934 76.69485474 C-78.51476924 81.91291832 -78.48531776 87.13072963 -78.4520874 92.34869385 C-78.421347 97.67774036 -78.40768552 103.0068278 -78.39257812 108.3359375 C-78.36044638 118.78396473 -78.30927215 129.2318051 -78.24609375 139.6796875 C-77.42367187 139.65648437 -76.60125 139.63328125 -75.75390625 139.609375 C-74.07941406 139.58230469 -74.07941406 139.58230469 -72.37109375 139.5546875 C-71.28054688 139.53148437 -70.19 139.50828125 -69.06640625 139.484375 C-64.32996036 139.72652459 -59.86539042 140.64683745 -55.24609375 141.6796875 C-55.15352422 128.95394903 -55.08239499 116.22829029 -55.03884506 103.50228405 C-55.01794612 97.59344298 -54.98958607 91.68483179 -54.94433594 85.77612305 C-54.90096096 80.0767776 -54.87697404 74.37765363 -54.86658478 68.6781559 C-54.85917842 66.50076115 -54.84471603 64.32337889 -54.82317352 62.14607811 C-54.79425089 59.10256876 -54.79013312 56.05998147 -54.79199219 53.01635742 C-54.77761108 52.11077087 -54.76322998 51.20518433 -54.74841309 50.27215576 C-54.65276913 45.49063998 -54.65276913 45.49063998 -57.12652588 41.62324524 C-63.48773803 38.79145531 -70.20743223 40.00970853 -75.24609375 44.6796875 Z " fill="#000000" transform="translate(498.24609375,61.3203125)"/>
<path d="M0 0 C5.92467517 4.78860344 10.66593922 11.84907457 11.75 19.4375 C12.74 18.9425 12.74 18.9425 13.75 18.4375 C31.81742215 17.24085206 31.81742215 17.24085206 39.75 22.4375 C40.44351563 22.86160156 41.13703125 23.28570312 41.8515625 23.72265625 C49.98502043 29.19065512 54.45130698 37.04329761 56.75 46.4375 C57.03131662 49.81994811 56.88083816 53.12880198 56.69042969 56.51416016 C56.60836856 58.51555429 56.52734168 60.51699103 56.44720459 62.51846313 C56.40023186 63.56900501 56.35325912 64.61954689 56.30486298 65.70192337 C56.02682542 72.54820134 55.92368689 79.40006764 55.78136826 86.25025368 C55.64732114 92.22606069 55.45912153 98.19022835 55.14892578 104.15966797 C52.94604067 135.5981528 52.94604067 135.5981528 66.53337479 162.68003654 C72.82880849 169.18913111 79.80235735 174.8339796 87.08493233 180.19175148 C92.74000527 184.42268987 97.81101121 189.35119263 102.75390625 194.37890625 C103.28088608 194.9096727 103.80786591 195.44043915 104.35081482 195.98728943 C106.00722208 197.65572621 107.66029003 199.32740736 109.3125 201 C111.49827799 203.21265624 113.68631431 205.42300075 115.87890625 207.62890625 C116.39946594 208.15264328 116.92002563 208.67638031 117.45635986 209.21598816 C120.12863462 211.88463954 122.83672605 214.44987517 125.73828125 216.8671875 C138.15712071 227.46588577 143.10557424 241.64628207 144.75 257.4375 C145.03633992 262.47143692 145.03907209 267.50730776 145.01074219 272.54785156 C145.00004502 274.80300983 145.01069109 277.05736605 145.0234375 279.3125 C145.04615236 299.74765493 141.97128491 320.61431452 128.50002289 336.95359612 C124.9774287 341.33914557 124.04006884 344.86279309 124.16992188 350.49658203 C124.16746964 351.2698584 124.1650174 352.04313477 124.16249084 352.83984375 C124.1603297 354.50673712 124.16951143 356.17367684 124.1889801 357.84045792 C124.21915639 360.48087134 124.21799244 363.11967115 124.2088623 365.76022339 C124.194977 371.36118872 124.21966211 376.96162233 124.25 382.5625 C124.28515871 389.0622762 124.30438176 395.56126843 124.28187561 402.06112289 C124.28125861 404.65905793 124.31041888 407.25557025 124.34069824 409.853302 C124.33862362 411.44793959 124.3351581 413.04257618 124.33007812 414.63720703 C124.35479942 415.71583511 124.35479942 415.71583511 124.38002014 416.81625366 C124.33649028 420.43339221 123.79932345 422.36398323 121.77209473 425.38557434 C117.67469946 428.16760179 114.66477682 428.13653934 109.81640625 428.06860352 C108.48136551 428.07933647 108.48136551 428.07933647 107.11935425 428.09028625 C104.18321084 428.10716736 101.24859556 428.08777413 98.3125 428.06640625 C96.2689603 428.067235 94.22542067 428.06969462 92.18188477 428.07371521 C87.90132557 428.07657281 83.62128972 428.06187537 79.34082031 428.03442383 C73.85609236 428.0003414 68.37230021 428.00635977 62.88752747 428.0250864 C58.6684185 428.03565892 54.44952699 428.02671622 50.23043823 428.01170158 C48.20824835 428.00652118 46.18603575 428.00699985 44.16384888 428.01324654 C41.33660107 428.0187017 38.5106893 427.99831389 35.68359375 427.97094727 C34.43193924 427.98073608 34.43193924 427.98073608 33.15499878 427.99072266 C29.15947452 427.92501552 27.20695174 427.72857586 23.75415039 425.52915955 C21.34339569 423.01314173 20.76577343 422.19051103 20.69271851 418.70292664 C20.7224173 417.53856583 20.75211609 416.37420502 20.78271484 415.17456055 C20.811185 413.85526047 20.83965515 412.53596039 20.86898804 411.17668152 C20.89302767 410.11410661 20.89302767 410.11410661 20.91755295 409.03006554 C21.0072383 404.47009811 21.02542123 399.90918737 21.05389977 395.34849834 C21.08285868 391.35087357 21.13835777 387.35721265 21.25390625 383.36108398 C22.63069821 364.95692694 22.63069821 364.95692694 16.51513672 348.53222656 C13.50556994 345.62844962 10.26485682 343.44271521 6.58798218 341.47064209 C3.82229287 339.91602961 1.51635293 337.88261592 -0.875 335.8125 C-1.74382813 335.10867188 -2.61265625 334.40484375 -3.5078125 333.6796875 C-6.62000148 331.13496317 -9.68726497 328.54131775 -12.75 325.9375 C-16.71899152 322.56461398 -20.7101718 319.22573226 -24.75 315.9375 C-25.63171875 315.21433594 -26.5134375 314.49117188 -27.421875 313.74609375 C-28.90173952 312.53808279 -30.38293491 311.33157498 -31.87695312 310.14111328 C-43.91793674 300.54357841 -52.93692651 290.02955602 -56.25 274.4375 C-56.33921457 272.94501908 -56.37902253 271.44913399 -56.38142776 269.95399094 C-56.38526891 269.05572767 -56.38911005 268.1574644 -56.3930676 267.23198104 C-56.39220112 266.24911565 -56.39133463 265.26625026 -56.39044189 264.25360107 C-56.39341302 263.20635494 -56.39638414 262.15910882 -56.3994453 261.08012795 C-56.40813934 257.5595955 -56.40964115 254.03909703 -56.41113281 250.51855469 C-56.41576048 247.99895657 -56.42078507 245.47935916 -56.42617798 242.95976257 C-56.43930875 236.1063748 -56.44578493 229.25299824 -56.45018864 222.39960003 C-56.4529523 218.11930658 -56.45718988 213.83901538 -56.46169281 209.55872345 C-56.47388463 197.705002 -56.48418406 185.85128236 -56.4875679 173.99755478 C-56.48778747 173.23903167 -56.48800703 172.48050856 -56.48823325 171.6989999 C-56.48845153 170.93867434 -56.48866981 170.17834878 -56.4888947 169.39498305 C-56.48933817 167.85430511 -56.48978473 166.31362716 -56.49023438 164.77294922 C-56.4904558 164.00872171 -56.49067723 163.24449421 -56.49090537 162.45710829 C-56.49485272 150.07610848 -56.51230517 137.69516755 -56.5355939 125.31419048 C-56.55931775 112.59912334 -56.57177023 99.88408573 -56.57293582 87.1689961 C-56.57385201 80.03144197 -56.57959012 72.89396456 -56.59775543 65.75643158 C-56.61478295 59.04235852 -56.61640132 52.32845583 -56.60761642 45.6143589 C-56.60684498 43.1504992 -56.61120283 40.68663172 -56.62107468 38.22279167 C-56.63376488 34.85813169 -56.6279328 31.49398983 -56.61749268 28.1293335 C-56.62554908 27.15539099 -56.63360548 26.18144849 -56.64190602 25.17799258 C-56.57486666 15.93372528 -54.07291555 9.3811831 -47.70703125 2.5546875 C-33.99367062 -9.2619126 -14.92569791 -9.8646854 0 0 Z M-33.25 18.4375 C-35.29073898 21.49860847 -35.50138632 22.10978821 -35.51729965 25.55532074 C-35.52599854 26.39749193 -35.53469743 27.23966311 -35.54365993 28.10735464 C-35.54308943 29.03272229 -35.54251894 29.95808993 -35.54193115 30.91149902 C-35.54913469 31.89452075 -35.55633822 32.87754247 -35.56376004 33.89035273 C-35.58552815 37.19970809 -35.59301627 40.50894326 -35.60058594 43.81835938 C-35.61315281 46.18516484 -35.62656507 48.55196596 -35.64076233 50.91876221 C-35.67297925 56.69124498 -35.69582927 62.46370917 -35.71412745 68.23625177 C-35.72920022 72.93147116 -35.74812727 77.62666025 -35.76981354 82.32185364 C-35.77289536 82.98990864 -35.77597719 83.65796363 -35.77915241 84.34626272 C-35.7854293 85.70346912 -35.79171473 87.06067547 -35.79800859 88.41788179 C-35.85661746 101.15601193 -35.9029815 113.89416439 -35.94521323 126.6323579 C-35.98169058 137.54792877 -36.02871469 148.46341243 -36.08349609 159.37890625 C-36.14712794 172.05876594 -36.20405496 184.73862719 -36.2504847 197.41856241 C-36.25546401 198.77324839 -36.26045225 200.12793433 -36.26544952 201.48262024 C-36.26790508 202.14910213 -36.27036064 202.81558402 -36.27289061 203.50226232 C-36.29060139 208.18444929 -36.31316386 212.86659394 -36.33739471 217.54875183 C-36.36964841 223.86550894 -36.39184124 230.18222443 -36.40640068 236.49904633 C-36.41335933 238.81329926 -36.42377025 241.12754489 -36.43795204 243.44176483 C-36.45679809 246.61044148 -36.46293633 249.77890604 -36.46600342 252.94763184 C-36.47435581 253.85515371 -36.4827082 254.76267558 -36.4913137 255.69769812 C-36.46572078 268.44958812 -34.14646318 278.60940391 -25.125 287.9375 C-20.99907431 291.87278886 -16.65008414 295.48966718 -12.203125 299.0546875 C-9.00787965 301.63286166 -5.87551483 304.2757415 -2.75 306.9375 C1.21867039 310.31075331 5.21018321 313.64927703 9.25 316.9375 C13.84711631 320.67933886 18.38024799 324.48985831 22.88989258 328.33618164 C25.54628725 330.59620641 28.21785913 332.82699861 30.94921875 334.99609375 C32.42841797 336.17365234 32.42841797 336.17365234 33.9375 337.375 C35.25814453 338.40947266 35.25814453 338.40947266 36.60546875 339.46484375 C39.59110109 342.21119043 40.62938694 344.20969212 41.0284729 348.27227783 C41.04179657 349.36481873 41.05512024 350.45735962 41.06884766 351.58300781 C41.08871735 352.82399231 41.10858704 354.06497681 41.12905884 355.34356689 C41.14093424 356.69258445 41.15259715 358.04160389 41.1640625 359.390625 C41.18277907 360.77497506 41.20235285 362.15931378 41.2227478 363.54364014 C41.27402362 367.18002627 41.31367346 370.81644937 41.35089111 374.45300293 C41.39095944 378.16667759 41.4419327 381.88020151 41.4921875 385.59375 C41.58992163 392.87494252 41.66947136 400.15601538 41.75 407.4375 C61.88 407.4375 82.01 407.4375 102.75 407.4375 C102.78738281 402.53777344 102.82476562 397.63804687 102.86328125 392.58984375 C102.8935739 389.47717904 102.92473011 386.36457061 102.95898438 383.25195312 C103.01321685 378.31651719 103.06433026 373.38119259 103.09643555 368.44555664 C103.12253391 364.46423431 103.16298178 360.48328793 103.21318626 356.50219917 C103.22981099 354.98689021 103.24135256 353.47151629 103.24761391 351.95612907 C103.25730342 349.82574358 103.28541756 347.69631039 103.31762695 345.56616211 C103.33428154 343.75081215 103.33428154 343.75081215 103.35127258 341.89878845 C103.95458374 336.66154154 105.93480951 332.2054769 109.0546875 327.9296875 C109.47105469 327.34227783 109.88742188 326.75486816 110.31640625 326.1496582 C110.74824219 325.543396 111.18007812 324.93713379 111.625 324.3125 C121.79976968 309.48351049 124.11819682 294.3361077 124.06567383 276.66503906 C124.06250393 274.44026034 124.08610405 272.21680409 124.11132812 269.9921875 C124.18511004 254.86247988 121.72505181 243.59762896 111.07470703 232.40576172 C109.7268813 231.05175511 108.37091417 229.70581439 107.0078125 228.3671875 C106.28061005 227.64185822 105.55340759 226.91652893 104.8041687 226.16921997 C103.27644578 224.64817253 101.74515287 223.13070297 100.21044922 221.61669922 C97.88118496 219.3186022 95.56276728 217.01000118 93.24609375 214.69921875 C91.75062011 213.21291746 90.25454611 211.72721996 88.7578125 210.2421875 C88.07421661 209.56284149 87.39062073 208.88349548 86.68630981 208.18356323 C82.78124138 204.33527718 78.76770611 200.67329288 74.62057495 197.08816528 C71.8916536 194.68006304 69.3316719 192.12572212 66.78125 189.53125 C66.25664185 189.00285522 65.73203369 188.47446045 65.19152832 187.93005371 C62.98883885 185.71130416 60.79229163 183.48651227 58.59521484 181.26220703 C44.99666699 165.85809315 44.99666699 165.85809315 27.05859375 158.2734375 C21.71199891 158.65339855 17.9277176 161.19938663 14.3125 165 C11.34662917 169.62675849 11.10579102 174.09056544 11.75 179.4375 C13.98347918 183.90445837 17.26178822 187.07569657 20.81665039 190.50439453 C22.61824479 192.30576142 24.26992124 194.16027619 25.91796875 196.1015625 C29.97568828 200.77447946 34.33899965 205.10050972 38.75 209.4375 C47.31563834 217.85941957 47.31563834 217.85941957 51.21875 222.40625 C55.31202757 227.16916514 59.77646937 231.53464126 64.25 235.9375 C82.45113294 253.8510953 82.45113294 253.8510953 83 260.4375 C82.75285406 263.40325126 82.40564155 264.99760719 80.75 267.4375 C77.21060064 269.79709957 75.2878423 270.06082938 71.125 269.9140625 C66.46419154 268.97883449 63.90737368 265.81171174 60.75 262.4375 C60.26966309 261.92735352 59.78932617 261.41720703 59.29443359 260.89160156 C57.00544754 258.45758334 54.72519012 256.01606529 52.46191406 253.55810547 C47.24423834 247.90170211 41.83663176 242.45726766 36.34375 237.06860352 C33.21599785 233.98219614 30.20500718 230.86028897 27.33984375 227.52734375 C23.37400772 222.9274205 19.07863267 218.69350461 14.75 214.4375 C-0.90745562 199.04275337 -0.90745562 199.04275337 -4.625 191.125 C-5.10710938 190.11824219 -5.58921875 189.11148438 -6.0859375 188.07421875 C-7.9617254 183.82537031 -8.36782535 180.74077176 -8.34333801 176.11882019 C-8.34137017 175.47528904 -8.33940234 174.83175789 -8.33737487 174.16872579 C-8.32964487 172.00851343 -8.3147798 169.84840752 -8.30004883 167.68823242 C-8.29321956 166.14089664 -8.28688912 164.59355859 -8.28102112 163.04621887 C-8.26768233 159.71171061 -8.25154066 156.37723149 -8.23346901 153.04274559 C-8.20565337 147.76909928 -8.18863269 142.49545337 -8.17399597 137.22175598 C-8.16885194 135.41641136 -8.16369532 133.61106678 -8.15852642 131.80572224 C-8.15594086 130.90157884 -8.1533553 129.99743545 -8.15069139 129.06589377 C-8.11463854 116.7872659 -8.06928197 104.50872876 -8.00317383 92.23022461 C-7.95867522 83.94923538 -7.92841995 75.66832531 -7.91431636 67.38722688 C-7.90624298 63.00506002 -7.89072922 58.62319559 -7.85764503 54.24114037 C-7.82657372 50.11824134 -7.81412006 45.99570575 -7.81586266 41.87269402 C-7.81316847 40.36099142 -7.80361618 38.84928282 -7.78663635 37.33767319 C-7.7644247 35.27037181 -7.76706113 33.2045008 -7.77571106 31.13713074 C-7.77072507 29.98141162 -7.76573908 28.8256925 -7.760602 27.63495159 C-8.54937502 22.48155184 -11.12643554 19.40785113 -15 16.0625 C-22.12128341 12.50185829 -27.10673262 14.13721283 -33.25 18.4375 Z M12.75 42.4375 C12.14370904 45.54129847 12.24583233 48.62147776 12.29589844 51.77416992 C12.29531433 52.73045792 12.29473022 53.68674591 12.29412842 54.67201233 C12.29691855 57.83769844 12.3280549 61.00244682 12.359375 64.16796875 C12.36683407 66.36086004 12.37252858 68.55375799 12.37652588 70.74665833 C12.39180839 76.52214925 12.43111309 82.29723866 12.4753418 88.0725708 C12.51623789 93.9643409 12.5345248 99.85617579 12.5546875 105.74804688 C12.59760454 117.31137446 12.66588776 128.87440386 12.75 140.4375 C13.38921387 140.2945752 14.02842773 140.15165039 14.68701172 140.00439453 C19.82862185 138.90625172 24.59099702 138.2000744 29.875 138.3125 C30.99132812 138.33054687 32.10765625 138.34859375 33.2578125 138.3671875 C34.08023438 138.39039063 34.90265625 138.41359375 35.75 138.4375 C35.84277224 126.95430578 35.91380185 115.47120106 35.95724869 103.98770809 C35.9781034 98.65516336 36.00638267 93.32287545 36.05175781 87.99047852 C36.09529062 82.84223984 36.11915302 77.69424787 36.12950897 72.54583931 C36.13688697 70.58386923 36.15129454 68.6219123 36.17292023 66.66004753 C36.20205297 63.90710383 36.20595188 61.15517321 36.20410156 58.40209961 C36.21848267 57.59505081 36.23286377 56.78800201 36.24768066 55.95649719 C36.20686894 50.32694647 34.94816743 47.08909952 31.75 42.4375 C27.93307974 38.95736682 24.08685663 39.08468203 19.15234375 39.0390625 C16.01112775 39.56004467 14.91890267 40.06027399 12.75 42.4375 Z " fill="#000000" transform="translate(56.25,62.5625)"/>
<path d="M0 0 C0.68320313 0.5775 1.36640625 1.155 2.0703125 1.75 C5.48033458 0.49649014 8.25270416 -0.94225558 11.1953125 -3.0625 C23.45693233 -11.37202749 36.65753557 -14.83448865 51.3828125 -14.6875 C53.02237915 -14.67396484 53.02237915 -14.67396484 54.69506836 -14.66015625 C75.16456483 -14.22363533 93.7728032 -5.89260506 108.0703125 8.75 C125.59038242 27.39605416 131.13878822 50.57812338 130.44921875 75.55078125 C129.15262988 102.39708063 112.73619592 123.1718 93.7578125 140.8125 C89.21149324 144.85724514 84.49601111 148.63871523 79.68652344 152.36132812 C74.88039206 156.08471678 70.18535966 159.92920391 65.5078125 163.8125 C60.51550627 167.95263844 55.48961356 172.02038005 50.3203125 175.9375 C45.92177013 179.28302474 41.65012515 182.72997979 37.4453125 186.3125 C36.90648437 186.77043945 36.36765625 187.22837891 35.8125 187.70019531 C33.23984918 189.89038287 30.67738113 192.09081846 28.125 194.3046875 C18.77047664 202.25212378 11.50791815 205.88322484 -0.93359375 205.24609375 C-11.48288857 204.24104095 -18.76748611 197.53246223 -26.0703125 190.4765625 C-30.1340039 186.60162179 -34.49811631 183.19029868 -38.9296875 179.75 C-41.14004918 178.02341824 -43.34761817 176.29328758 -45.5546875 174.5625 C-46.13943848 174.10447998 -46.72418945 173.64645996 -47.32666016 173.17456055 C-52.6786897 168.97145255 -57.9629925 164.68743009 -63.23535156 160.38500977 C-66.90217764 157.3930624 -70.58809863 154.43016333 -74.3046875 151.5 C-78.53951747 148.12492578 -82.56246812 144.55168183 -86.55859375 140.8984375 C-88.66732117 138.98772896 -90.81748855 137.14699852 -92.9921875 135.3125 C-109.35080813 120.92084778 -122.50357799 100.96603331 -124.14941406 78.78930664 C-125.13356739 52.48801558 -120.41897154 29.31680047 -102.37841797 9.28857422 C-76.15377497 -18.56240323 -30.67989176 -23.56215687 0 0 Z M-86.1171875 23.5 C-99.80823395 37.74207928 -103.46840355 55.09518513 -103.203125 74.2109375 C-102.54722592 93.47878473 -90.26900739 108.55329142 -77.09765625 121.54296875 C-68.310588 129.65120769 -58.89518838 137.01687988 -49.48217773 144.37597656 C-44.14167383 148.56022911 -38.87465796 152.8317535 -33.6171875 157.11962891 C-30.01007989 160.0613904 -26.39012849 162.98384418 -22.7421875 165.875 C-18.21134653 169.48274943 -13.79499902 173.21895562 -9.39379883 176.98291016 C-7.91258163 178.24664433 -6.4214735 179.49875944 -4.9296875 180.75 C-4.30835938 181.35199219 -3.68703125 181.95398438 -3.046875 182.57421875 C0.27773587 184.42054324 3.43169859 184.51634301 7.0703125 183.75 C9.63165259 182.33064488 11.60057056 180.46773611 13.6953125 178.4375 C14.91818787 177.32159944 16.14351286 176.20837826 17.37109375 175.09765625 C18.29462646 174.25098389 18.29462646 174.25098389 19.23681641 173.38720703 C22.01212356 170.90901664 24.93395866 168.64133107 27.8828125 166.375 C33.21590451 162.24274166 38.44075503 157.99548252 43.6328125 153.6875 C48.60286677 149.56523276 53.60726278 145.51947301 58.7578125 141.625 C65.19345791 136.72394669 71.33941121 131.52976556 77.41992188 126.19628906 C78.48573215 125.2622861 79.55454271 124.33169072 80.62695312 123.40527344 C94.2775502 111.60636286 107.74037743 95.994655 109.27734375 77.22119141 C110.19595194 58.64890226 107.66747036 41.32179319 95.05664062 26.80297852 C83.97403265 14.71510654 70.78961455 7.01947577 54.15625 5.7890625 C38.8820108 5.5957177 26.24168713 10.44415529 15.0703125 20.75 C14.04181383 21.88895795 13.0199313 23.03396186 12.0078125 24.1875 C8.60049051 27.15984472 6.59242649 27.72549608 2.16796875 27.91015625 C-2.56703099 27.54863858 -4.95125023 24.74982582 -8.0546875 21.5 C-17.65522318 11.69210933 -30.22842309 6.42982474 -43.86328125 5.71875 C-60.34480334 5.88671456 -74.29776319 12.24424421 -86.1171875 23.5 Z " fill="#000000" transform="translate(252.9296875,36.25)"/>
</svg>
