<?xml version="1.0" encoding="UTF-8"?>
<svg version="1.1" xmlns="http://www.w3.org/2000/svg" width="153" height="148">
<path d="M0 0 C50.49 0 100.98 0 153 0 C153 48.84 153 97.68 153 148 C102.51 148 52.02 148 0 148 C0 99.16 0 50.32 0 0 Z " fill="#FEFEFE" transform="translate(0,0)"/>
<path d="M0 0 C8.23196465 -1.32351375 16.91093128 -2.49199633 25 0 C30.97339186 4.64106783 34.20679269 11.55447566 37.51269531 18.20605469 C39.93267027 22.75204835 42.94806073 26.86137686 46 31 C49.96992373 27.13300022 53.63263611 23.07163603 57.25 18.875 C57.81992676 18.22136475 58.38985352 17.56772949 58.97705078 16.89428711 C61.61443684 13.85249196 64.19292735 10.80125756 66.6015625 7.57421875 C67.35179688 6.58035156 68.10203125 5.58648437 68.875 4.5625 C69.83019531 3.23412109 69.83019531 3.23412109 70.8046875 1.87890625 C73 0 73 0 76.7578125 -0.28515625 C77.82773438 -0.19105469 78.89765625 -0.09695312 80 0 C77.95953274 3.63177507 75.71381615 6.58268448 72.875 9.625 C68.81003123 14.05891245 64.98537808 18.6324298 61.22265625 23.32421875 C58.42665713 26.69022823 55.41748473 29.82452688 52.3359375 32.9296875 C50.78996845 34.91483344 50.78996845 34.91483344 51 37.32421875 C52.344215 40.92104405 54.39813733 43.84622433 56.625 46.9375 C57.62190026 48.35359925 58.61794479 49.77030117 59.61328125 51.1875 C60.42466553 52.33605469 60.42466553 52.33605469 61.25244141 53.5078125 C64.48585457 58.11897226 67.64447393 62.78129506 70.8125 67.4375 C71.43398926 68.34814209 72.05547852 69.25878418 72.69580078 70.19702148 C74.46786003 72.79533004 76.23530389 75.39668591 78 78 C78.5882959 78.86641113 79.1765918 79.73282227 79.78271484 80.62548828 C80.33266113 81.44130371 80.88260742 82.25711914 81.44921875 83.09765625 C81.94123779 83.82605713 82.43325684 84.55445801 82.94018555 85.30493164 C84 87 84 87 84 88 C63.05567428 90.50801367 63.05567428 90.50801367 56.9296875 86.71972656 C53.46067027 83.18158037 51.37368106 78.85226516 49.24511719 74.42285156 C46.99030907 70.03526023 44.10478561 66.05773692 41.3125 62 C40.28468436 60.4603824 39.25966099 58.91889467 38.23828125 57.375 C37.589198 56.39660156 37.589198 56.39660156 36.92700195 55.3984375 C36.62109131 54.93695313 36.31518066 54.47546875 36 54 C29.39256238 60.53812883 23.24232083 67.41600513 17.375 74.625 C16.6325 75.53121094 15.89 76.43742187 15.125 77.37109375 C13.76657835 79.05164113 12.43066991 80.75080406 11.125 82.47265625 C6.84221847 87.89305162 6.84221847 87.89305162 2.0625 88.5 C1.051875 88.335 0.04125 88.17 -1 88 C2.77773734 82.71116773 6.86008668 77.7715897 11.125 72.875 C11.6811499 72.23578613 12.2372998 71.59657227 12.81030273 70.93798828 C15.11737504 68.29128285 17.42825006 65.64812145 19.75097656 63.01513672 C21.42308363 61.11923037 23.08689278 59.21630015 24.75 57.3125 C25.26320801 56.73677246 25.77641602 56.16104492 26.30517578 55.56787109 C29.63956497 51.74539603 29.63956497 51.74539603 31 47 C29.55431898 44.48378304 28.08614571 42.26303504 26.375 39.9375 C25.35604313 38.5070285 24.33784654 37.0760152 23.3203125 35.64453125 C22.77922852 34.89123535 22.23814453 34.13793945 21.68066406 33.36181641 C18.80838293 29.32543528 16.03510928 25.22177451 13.25 21.125 C9.25866609 15.27127794 5.23623968 9.44895976 1.07421875 3.71484375 C0 2 0 2 0 0 Z " fill="#0A0A0A" transform="translate(35,30)"/>
<path d="M0 0 C3.88634861 -0.78453392 7.13011373 -0.94988117 11 0 C14.30041838 2.97037654 16.56683866 6.4633575 18.88623047 10.20849609 C19.97186067 11.95473775 21.10074152 13.66103766 22.25390625 15.36328125 C23.90336243 17.80058884 25.53413228 20.24886478 27.15234375 22.70703125 C30.44649219 27.69356463 33.81644201 32.62776371 37.1875 37.5625 C37.81640137 38.48321289 38.44530273 39.40392578 39.09326172 40.35253906 C40.39260793 42.25448537 41.69208912 44.15633947 42.99169922 46.05810547 C45.06142717 49.08998267 47.12697075 52.12467323 49.19140625 55.16015625 C49.87114502 56.15909912 50.55088379 57.15804199 51.2512207 58.18725586 C52.55641168 60.10558529 53.86096508 62.0243487 55.16479492 63.94360352 C55.75494385 64.81041748 56.34509277 65.67723145 56.953125 66.5703125 C57.47036133 67.33102051 57.98759766 68.09172852 58.52050781 68.87548828 C59.53451692 70.33157859 60.59430724 71.75653148 61.69042969 73.15185547 C63 75 63 75 63 77 C59.20130327 77.55640947 55.78682323 77.71002936 52 77 C48.82879777 74.58323701 47.05826662 71.37465253 45 68 C43.90846705 66.37174643 42.8165173 64.7437577 41.71777344 63.12036133 C40.44112185 61.22509168 39.1825035 59.31869287 37.92578125 57.41015625 C34.5637911 52.3221496 31.12680704 47.28594054 27.6875 42.25 C27.05070312 41.31744385 26.41390625 40.3848877 25.7578125 39.42407227 C24.47087381 37.5402995 23.18360273 35.65675377 21.89599609 33.7734375 C20.06105216 31.08930627 18.22763244 28.40413993 16.39453125 25.71875 C15.2630999 24.06244598 14.13159208 22.4061942 13 20.75 C12.19852539 19.57594604 12.19852539 19.57594604 11.38085938 18.37817383 C8.00706914 13.4445906 4.5852456 8.5520696 1.07421875 3.71484375 C0 2 0 2 0 0 Z " fill="#F6F6F6" transform="translate(45,35)"/>
</svg>
